<?xml version="1.0" encoding="UTF-8" standalone="no"?><!DOCTYPE svg PUBLIC "-//W3C//DTD SVG 1.1//EN" "http://www.w3.org/Graphics/SVG/1.1/DTD/svg11.dtd"><svg width="1341px" height="835px" version="1.1" xmlns="http://www.w3.org/2000/svg" xmlns:xlink="http://www.w3.org/1999/xlink" xml:space="preserve" xmlns:serif="http://www.serif.com/" style="fill-rule:evenodd;clip-rule:evenodd;stroke-linejoin:round;stroke-miterlimit:2;"><g><g transform="matrix(0.0733696,0,0,0.0733696,-482.957,-513.236)"><g transform="matrix(988.936,0,0,988.936,11118.2,18147.5)"><path d="M0.11,-0L0.11,-0.367L0.023,-0.367L0.023,-0.488L0.11,-0.488L0.11,-0.514C0.11,-0.581 0.13,-0.63 0.169,-0.664C0.208,-0.697 0.255,-0.713 0.31,-0.713C0.357,-0.713 0.402,-0.699 0.447,-0.671L0.398,-0.57C0.377,-0.583 0.354,-0.59 0.327,-0.59C0.304,-0.59 0.286,-0.584 0.274,-0.571C0.261,-0.558 0.254,-0.539 0.254,-0.514L0.254,-0.488L0.391,-0.488L0.391,-0.367L0.254,-0.367L0.254,-0L0.11,-0Z" style="fill:#fff;fill-rule:nonzero;"/></g><g transform="matrix(988.936,0,0,988.936,11519.7,18147.5)"><path d="M0.195,-0.493L0.206,-0.439C0.237,-0.483 0.281,-0.505 0.338,-0.505C0.385,-0.505 0.425,-0.49 0.459,-0.46L0.399,-0.346C0.376,-0.363 0.35,-0.371 0.32,-0.371C0.287,-0.371 0.26,-0.361 0.238,-0.341C0.216,-0.32 0.205,-0.292 0.205,-0.257L0.205,-0L0.061,-0L0.061,-0.493L0.195,-0.493Z" style="fill:#fff;fill-rule:nonzero;"/></g><g transform="matrix(988.936,0,0,988.936,11955.8,18147.5)"><path d="M0.5,-0.056C0.451,-0.008 0.385,0.016 0.302,0.016C0.219,0.016 0.153,-0.008 0.105,-0.056C0.056,-0.103 0.032,-0.167 0.032,-0.246C0.032,-0.321 0.057,-0.383 0.107,-0.432C0.156,-0.481 0.221,-0.505 0.302,-0.505C0.383,-0.505 0.449,-0.481 0.499,-0.432C0.548,-0.383 0.573,-0.321 0.573,-0.246C0.573,-0.167 0.549,-0.103 0.5,-0.056ZM0.209,-0.151C0.23,-0.125 0.261,-0.112 0.302,-0.112C0.343,-0.112 0.375,-0.125 0.396,-0.151C0.417,-0.176 0.427,-0.208 0.427,-0.246C0.427,-0.281 0.416,-0.311 0.395,-0.337C0.374,-0.363 0.343,-0.376 0.302,-0.376C0.262,-0.376 0.231,-0.363 0.21,-0.337C0.189,-0.311 0.178,-0.281 0.178,-0.246C0.178,-0.209 0.188,-0.177 0.209,-0.151Z" style="fill:#fff;fill-rule:nonzero;"/></g><g transform="matrix(988.936,0,0,988.936,12554.1,18147.5)"><path d="M0.386,-0L0.386,-0.265C0.386,-0.298 0.378,-0.325 0.362,-0.344C0.346,-0.363 0.323,-0.373 0.294,-0.373C0.267,-0.373 0.245,-0.362 0.229,-0.341C0.213,-0.32 0.205,-0.294 0.205,-0.264L0.205,-0L0.061,-0L0.061,-0.494L0.187,-0.494L0.197,-0.438C0.224,-0.483 0.267,-0.505 0.327,-0.505C0.396,-0.505 0.445,-0.474 0.472,-0.413C0.494,-0.446 0.518,-0.47 0.543,-0.484C0.568,-0.498 0.598,-0.505 0.635,-0.505C0.766,-0.505 0.832,-0.427 0.832,-0.27L0.832,-0L0.687,-0L0.687,-0.267C0.687,-0.301 0.682,-0.327 0.671,-0.344C0.66,-0.361 0.64,-0.37 0.612,-0.37C0.585,-0.37 0.564,-0.36 0.55,-0.34C0.535,-0.32 0.528,-0.295 0.528,-0.265L0.528,-0L0.386,-0Z" style="fill:#fff;fill-rule:nonzero;"/></g><g transform="matrix(988.936,0,0,988.936,13664.7,18147.5)"><path d="M0.687,-0.486L0.471,-0.214L0.443,-0.214L0.234,-0.488L0.234,0.001L0.078,0.001L0.078,-0.699L0.257,-0.699L0.461,-0.43L0.666,-0.699L0.843,-0.699L0.843,0.001L0.687,0.001L0.687,-0.486Z" style="fill:#1a1a1a;fill-rule:nonzero;"/></g><g transform="matrix(988.936,0,0,988.936,14575.5,18147.5)"><path d="M0.075,-0.565C0.059,-0.579 0.051,-0.599 0.051,-0.625C0.051,-0.651 0.059,-0.671 0.075,-0.685C0.091,-0.699 0.11,-0.706 0.133,-0.706C0.156,-0.706 0.175,-0.699 0.191,-0.685C0.207,-0.671 0.215,-0.651 0.215,-0.625C0.215,-0.599 0.207,-0.579 0.191,-0.565C0.175,-0.551 0.156,-0.544 0.133,-0.544C0.11,-0.544 0.091,-0.551 0.075,-0.565ZM0.205,-0.495L0.205,-0L0.061,-0L0.061,-0.495L0.205,-0.495Z" style="fill:#1a1a1a;fill-rule:nonzero;"/></g><g transform="matrix(988.936,0,0,988.936,14838.6,18147.5)"><path d="M0.495,-0.063C0.445,-0.01 0.381,0.016 0.302,0.016C0.225,0.016 0.16,-0.006 0.109,-0.051C0.058,-0.095 0.032,-0.159 0.032,-0.244C0.032,-0.324 0.058,-0.388 0.11,-0.435C0.162,-0.482 0.226,-0.505 0.301,-0.505C0.377,-0.505 0.437,-0.482 0.48,-0.435L0.4,-0.344C0.374,-0.363 0.343,-0.373 0.307,-0.373C0.27,-0.373 0.239,-0.362 0.214,-0.339C0.189,-0.316 0.177,-0.284 0.177,-0.244C0.177,-0.206 0.189,-0.176 0.214,-0.154C0.239,-0.131 0.269,-0.12 0.304,-0.12C0.321,-0.12 0.34,-0.123 0.359,-0.13C0.378,-0.137 0.393,-0.146 0.404,-0.157L0.495,-0.063Z" style="fill:#1a1a1a;fill-rule:nonzero;"/></g><g transform="matrix(988.936,0,0,988.936,15327.1,18147.5)"><path d="M0.443,-0.494L0.578,-0.494L0.578,-0L0.448,-0L0.44,-0.062C0.425,-0.036 0.403,-0.017 0.374,-0.004C0.345,0.009 0.316,0.015 0.288,0.015C0.213,0.015 0.151,-0.009 0.104,-0.056C0.057,-0.103 0.033,-0.167 0.033,-0.247C0.033,-0.326 0.057,-0.388 0.105,-0.435C0.152,-0.482 0.212,-0.505 0.285,-0.505C0.359,-0.505 0.41,-0.482 0.438,-0.437L0.443,-0.494ZM0.307,-0.378C0.27,-0.378 0.239,-0.366 0.214,-0.343C0.189,-0.319 0.177,-0.287 0.177,-0.247C0.177,-0.207 0.189,-0.175 0.214,-0.152C0.239,-0.129 0.27,-0.117 0.307,-0.117C0.346,-0.117 0.377,-0.13 0.402,-0.155C0.426,-0.18 0.438,-0.209 0.438,-0.242C0.438,-0.279 0.426,-0.311 0.403,-0.338C0.38,-0.365 0.348,-0.378 0.307,-0.378Z" style="fill:#1a1a1a;fill-rule:nonzero;"/></g><g transform="matrix(988.936,0,0,988.936,15959,18147.5)"><path d="M0.206,-0.7L0.206,-0.435C0.241,-0.481 0.291,-0.504 0.356,-0.504C0.487,-0.504 0.553,-0.425 0.553,-0.267L0.553,-0L0.409,-0L0.409,-0.266C0.409,-0.3 0.401,-0.326 0.384,-0.345C0.367,-0.364 0.344,-0.373 0.315,-0.373C0.284,-0.373 0.258,-0.363 0.236,-0.342C0.216,-0.321 0.205,-0.291 0.205,-0.252L0.205,-0L0.061,-0L0.061,-0.7L0.206,-0.7Z" style="fill:#1a1a1a;fill-rule:nonzero;"/></g><g transform="matrix(988.936,0,0,988.936,16793.7,18147.5)"><path d="M0.234,-0.7L0.234,-0.143L0.584,-0.143L0.584,-0L0.078,-0L0.078,-0.7L0.234,-0.7Z" style="fill:#1a1a1a;fill-rule:nonzero;"/></g><g transform="matrix(988.936,0,0,988.936,17387.1,18147.5)"><path d="M0.075,-0.565C0.059,-0.579 0.051,-0.599 0.051,-0.625C0.051,-0.651 0.059,-0.671 0.075,-0.685C0.091,-0.699 0.11,-0.706 0.133,-0.706C0.156,-0.706 0.175,-0.699 0.191,-0.685C0.207,-0.671 0.215,-0.651 0.215,-0.625C0.215,-0.599 0.207,-0.579 0.191,-0.565C0.175,-0.551 0.156,-0.544 0.133,-0.544C0.11,-0.544 0.091,-0.551 0.075,-0.565ZM0.205,-0.495L0.205,-0L0.061,-0L0.061,-0.495L0.205,-0.495Z" style="fill:#1a1a1a;fill-rule:nonzero;"/></g><g transform="matrix(988.936,0,0,988.936,17650.1,18147.5)"><path d="M0.417,-0L0.417,-0.261C0.417,-0.338 0.383,-0.376 0.315,-0.376C0.282,-0.376 0.256,-0.364 0.234,-0.341C0.214,-0.317 0.203,-0.288 0.203,-0.255L0.203,-0L0.061,-0L0.061,-0.494L0.191,-0.494L0.196,-0.431C0.234,-0.48 0.286,-0.505 0.351,-0.505C0.416,-0.505 0.467,-0.487 0.505,-0.451C0.543,-0.415 0.562,-0.352 0.562,-0.262L0.562,-0L0.417,-0Z" style="fill:#1a1a1a;fill-rule:nonzero;"/></g><g transform="matrix(988.936,0,0,988.936,18259.3,18147.5)"><path d="M0.579,-0.699L0.579,-0L0.45,-0L0.441,-0.063C0.419,-0.033 0.395,-0.013 0.369,-0.002C0.342,0.009 0.312,0.014 0.277,0.014C0.205,0.014 0.146,-0.01 0.101,-0.059C0.056,-0.108 0.033,-0.17 0.033,-0.247C0.033,-0.326 0.056,-0.388 0.101,-0.435C0.146,-0.481 0.206,-0.504 0.279,-0.504C0.344,-0.504 0.395,-0.481 0.434,-0.434L0.434,-0.699L0.579,-0.699ZM0.299,-0.374C0.262,-0.374 0.232,-0.362 0.211,-0.339C0.189,-0.316 0.178,-0.285 0.178,-0.247C0.178,-0.21 0.189,-0.18 0.211,-0.156C0.232,-0.132 0.262,-0.12 0.299,-0.12C0.336,-0.12 0.367,-0.13 0.393,-0.151C0.419,-0.172 0.432,-0.204 0.432,-0.247C0.432,-0.287 0.419,-0.318 0.393,-0.341C0.366,-0.363 0.335,-0.374 0.299,-0.374Z" style="fill:#1a1a1a;fill-rule:nonzero;"/></g><g transform="matrix(988.936,0,0,988.936,18892.2,18147.5)"><rect x="0.063" y="-0.699" width="0.143" height="0.699" style="fill:#1a1a1a;fill-rule:nonzero;"/></g><g transform="matrix(988.936,0,0,988.936,19158.2,18147.5)"><path d="M0.179,-0.197C0.183,-0.172 0.197,-0.151 0.22,-0.134C0.243,-0.117 0.274,-0.108 0.313,-0.108C0.369,-0.108 0.412,-0.121 0.441,-0.147L0.522,-0.057C0.473,-0.008 0.402,0.016 0.31,0.016C0.222,0.016 0.154,-0.008 0.106,-0.057C0.057,-0.105 0.033,-0.169 0.033,-0.249C0.033,-0.324 0.057,-0.386 0.105,-0.433C0.152,-0.48 0.216,-0.504 0.295,-0.504C0.372,-0.504 0.433,-0.483 0.478,-0.442C0.524,-0.401 0.547,-0.341 0.547,-0.264C0.547,-0.239 0.545,-0.217 0.542,-0.197L0.179,-0.197ZM0.413,-0.302C0.412,-0.327 0.4,-0.347 0.377,-0.361C0.354,-0.374 0.327,-0.381 0.295,-0.381C0.266,-0.381 0.241,-0.374 0.221,-0.36C0.2,-0.346 0.186,-0.327 0.179,-0.302L0.413,-0.302Z" style="fill:#1a1a1a;fill-rule:nonzero;"/></g><g transform="matrix(988.936,0,0,988.936,19728.9,18147.5)"><path d="M0.568,-0.494L0.265,0.222L0.108,0.222L0.21,-0.015L0.003,-0.494L0.165,-0.494L0.288,-0.183L0.409,-0.494L0.568,-0.494Z" style="fill:#1a1a1a;fill-rule:nonzero;"/></g></g><g><path d="M557.87,224.466C495.885,224.466 445.637,174.218 445.637,112.233C445.637,50.29 495.927,0 557.87,0C619.854,0 670.103,50.248 670.103,112.233L557.87,112.233L557.87,224.466ZM670.103,112.233C670.103,50.248 720.351,0 782.336,0C844.279,0 894.569,50.29 894.569,112.233C894.569,174.218 844.321,224.466 782.336,224.466L782.336,112.233L670.103,112.233ZM782.336,224.466C844.321,224.466 894.569,274.715 894.569,336.699C894.569,398.642 844.279,448.932 782.336,448.932C720.351,448.932 670.103,398.684 670.103,336.699L782.336,336.699L782.336,224.466ZM670.103,336.699C670.103,398.684 619.854,448.932 557.87,448.932C495.927,448.932 445.637,398.642 445.637,336.699C445.637,274.715 495.885,224.466 557.87,224.466L557.87,336.699L670.103,336.699Z" style="fill:#fff;"/><g><g><path d="M168.035,672.435L64.881,672.435L48.273,711.552L0,711.552L92.95,503.886L140.252,503.886L233.311,711.552L184.751,711.552L168.035,672.435ZM116.601,551.057L81.834,632.743L151.082,632.743L116.601,551.057Z" style="fill:#fff;fill-rule:nonzero;"/><path d="M271.972,561.411L271.972,641.659C271.972,663.71 281.742,674.736 301.281,674.736C310.667,674.736 318.377,671.333 324.411,664.525C330.445,657.718 333.462,649.521 333.462,639.933L333.462,561.411L374.264,561.411L374.264,711.552L333.462,711.552L333.462,689.98C322.735,704.362 309.901,711.552 290.937,711.552C282.125,711.552 274.319,710.498 267.519,708.388C260.718,706.279 254.397,702.78 248.554,697.89C242.712,693 238.21,685.81 235.05,676.318C231.889,666.826 230.309,655.369 230.309,641.947L230.309,561.411L271.972,561.411Z" style="fill:#fff;fill-rule:nonzero;"/><path d="M434.187,561.411L434.187,580.395C442.999,567.739 455.929,561.411 472.403,561.411C485.812,561.411 497.401,565.726 507.171,574.355L489.93,607.144C483.417,602.35 475.851,599.953 467.231,599.953C457.845,599.953 449.991,602.878 443.669,608.726C437.348,614.574 434.187,622.58 434.187,632.743L434.187,711.552L392.784,711.552L392.784,561.411L434.187,561.411Z" style="fill:#fff;fill-rule:nonzero;"/><rect x="520.769" y="561.411" width="41.376" height="150.141" style="fill:#fff;fill-rule:nonzero;"/><path d="M697.037,564.863L737.264,564.863L737.264,711.552L697.037,711.552L697.037,689.117C692.823,696.596 687.076,702.156 678.648,705.8C670.219,709.443 661.982,711.265 653.937,711.265C632.291,711.265 614.667,704.457 601.067,690.843C587.466,677.229 580.666,658.917 580.666,635.907C580.666,613.28 587.514,595.255 601.21,581.833C614.907,568.41 632.195,561.699 653.075,561.699C674.338,561.699 688.992,568.219 697.037,581.258L697.037,564.863ZM659.396,598.228C648.669,598.228 639.761,601.631 632.674,608.438C625.586,615.245 622.042,624.402 622.042,635.907C622.042,647.412 625.586,656.52 632.674,663.231C639.761,669.942 648.669,673.298 659.396,673.298C670.506,673.298 679.558,669.655 686.549,662.368C693.541,655.082 697.037,646.741 697.037,637.345C697.037,626.607 693.685,617.403 686.98,609.733C680.276,602.063 671.081,598.228 659.396,598.228Z" style="fill:#fff;fill-rule:nonzero;"/><rect x="755.784" y="503.886" width="41.089" height="207.666" style="fill:#fff;fill-rule:nonzero;"/><rect x="815.393" y="561.411" width="41.376" height="150.141" style="fill:#fff;fill-rule:nonzero;"/><path d="M565.019,527.184C565.019,534.662 562.721,540.415 558.123,544.442C553.526,548.468 547.971,550.482 541.458,550.482C534.945,550.482 529.39,548.468 524.792,544.442C520.195,540.415 517.896,534.662 517.896,527.184C517.896,519.706 520.195,513.953 524.792,509.926C529.39,505.9 534.945,503.886 541.458,503.886L541.458,527.184L565.019,527.184Z" style="fill:#fff;fill-rule:nonzero;"/><path d="M812.52,527.184C812.52,519.706 814.818,513.953 819.416,509.926C824.013,505.9 829.568,503.886 836.081,503.886C842.594,503.886 848.15,505.9 852.747,509.926C857.344,513.953 859.643,519.706 859.643,527.184C859.643,534.662 857.344,540.415 852.747,544.442C848.15,548.468 842.594,550.482 836.081,550.482L836.081,527.184L812.52,527.184Z" style="fill:#fff;fill-rule:nonzero;"/></g><g><path d="M977.603,503.886C997.968,503.886 1014.73,508.545 1027.89,517.863C1041.05,527.181 1047.63,540.773 1047.63,558.64C1047.63,578.044 1036.31,594.751 1018.45,602.82C1028.82,606.663 1039.32,616.021 1045.18,624.954C1051.04,633.888 1053.97,643.542 1053.97,653.916C1053.97,656.222 1053.59,659.68 1052.82,664.291C1047.05,695.798 1022.56,711.552 979.332,711.552L878.181,711.552L878.181,503.886L977.603,503.886ZM922.273,582.271L977.027,582.271C994.51,582.271 1003.25,575.931 1003.25,563.251C1003.25,557.103 1001.04,552.156 996.623,548.41C992.204,544.664 985.864,542.79 977.603,542.79L922.273,542.79L922.273,582.271ZM922.273,672.36L977.603,672.36C997.392,672.36 1007.29,664.675 1007.29,649.306C1007.29,642.005 1004.69,636.241 999.505,632.015C994.318,627.788 986.825,625.675 977.027,625.675L922.273,625.675L922.273,672.36Z" style="fill:#1a1a1a;fill-rule:nonzero;"/><path d="M1202.08,690.947C1188.05,704.684 1169.03,711.552 1145.02,711.552C1121,711.552 1102.03,704.684 1088.1,690.947C1074.17,677.211 1067.21,658.912 1067.21,636.049C1067.21,614.34 1074.36,596.473 1088.68,582.448C1102.99,568.423 1121.77,561.411 1145.02,561.411C1168.45,561.411 1187.33,568.423 1201.64,582.448C1215.96,596.473 1223.11,614.34 1223.11,636.049C1223.11,658.912 1216.1,677.211 1202.08,690.947ZM1118.21,663.426C1124.17,670.919 1133.1,674.665 1145.02,674.665C1156.93,674.665 1165.91,670.967 1171.96,663.57C1178.01,656.174 1181.04,647 1181.04,636.049C1181.04,626.059 1177.96,617.318 1171.82,609.825C1165.67,602.332 1156.74,598.586 1145.02,598.586C1133.49,598.586 1124.65,602.332 1118.5,609.825C1112.36,617.318 1109.28,626.059 1109.28,636.049C1109.28,646.808 1112.26,655.934 1118.21,663.426Z" style="fill:#1a1a1a;fill-rule:nonzero;"/><path d="M1297.56,530.472L1297.56,565.64L1333.58,565.64L1333.58,600.222L1297.27,600.222L1297.27,654.976C1297.27,667.656 1302.65,673.996 1313.4,673.996C1320.32,673.996 1326.09,672.843 1330.7,670.538L1340.21,705.119C1332.33,708.385 1322.34,710.499 1310.24,711.459C1293.52,712.228 1280.31,708.241 1270.61,699.5C1260.91,690.758 1256.06,675.917 1256.06,654.976L1256.06,600.222L1230.7,600.222L1230.7,565.64L1256.06,565.64L1256.06,530.483L1297.56,530.472Z" style="fill:#1a1a1a;fill-rule:nonzero;"/></g></g></g></g></svg>