<?xml version="1.0" encoding="UTF-8" standalone="no"?><!DOCTYPE svg PUBLIC "-//W3C//DTD SVG 1.1//EN" "http://www.w3.org/Graphics/SVG/1.1/DTD/svg11.dtd"><svg width="1341px" height="810px" version="1.1" xmlns="http://www.w3.org/2000/svg" xmlns:xlink="http://www.w3.org/1999/xlink" xml:space="preserve" xmlns:serif="http://www.serif.com/" style="fill-rule:evenodd;clip-rule:evenodd;stroke-linejoin:round;stroke-miterlimit:2;"><g><g><path d="M782.964,224.043C845.295,224.043 895.825,274.197 895.825,336.065C895.825,397.891 845.253,448.087 782.964,448.087C720.632,448.087 670.103,397.933 670.103,336.065L782.964,336.065L782.964,224.043ZM557.242,224.043C494.911,224.043 444.381,274.197 444.381,336.065C444.381,397.891 494.952,448.087 557.242,448.087C619.573,448.087 670.103,397.933 670.103,336.065L557.242,336.065L557.242,224.043ZM670.103,112.022C670.103,50.154 619.573,-0 557.242,-0C494.952,-0 444.381,50.195 444.381,112.022C444.381,173.889 494.911,224.043 557.242,224.043L557.242,112.022L670.103,112.022ZM670.103,112.022C670.103,50.154 720.632,-0 782.964,-0C845.253,-0 895.825,50.195 895.825,112.022C895.825,173.889 845.295,224.043 782.964,224.043L782.964,112.022L670.103,112.022Z" style="fill:#fff;"/><g><g><path d="M261.234,561.362L261.234,632.68C261.234,653.159 270.316,663.398 288.479,663.398C297.205,663.398 304.373,660.237 309.982,653.916C315.591,647.594 318.396,639.981 318.396,631.078L318.396,561.362L356.326,561.362L356.326,693.582L321.601,693.582L320.266,677.555C310.294,690.91 296.493,697.588 278.863,697.588C270.672,697.588 263.416,696.609 257.094,694.65C250.772,692.691 244.896,689.441 239.465,684.9C234.033,680.36 229.849,673.682 226.91,664.867C223.972,656.053 222.503,645.413 222.503,632.947L222.503,561.362L261.234,561.362ZM683.269,561.362L719.329,561.362L719.329,693.314L684.605,693.314L682.468,676.754C678.55,683.698 672.674,688.863 664.838,692.246C657.003,695.629 649.346,697.321 641.867,697.321C621.744,697.321 605.362,691 592.718,678.356C580.075,665.713 573.754,648.707 573.754,627.338C573.754,606.325 580.12,589.587 592.852,577.121C605.584,564.656 621.655,558.424 641.065,558.424C660.832,558.424 674.454,564.478 681.933,576.587L683.269,561.362ZM154.39,661.261L58.497,661.261L44.875,693.314L0,693.314L83.873,506.337L129.282,506.337L213.154,693.314L168.013,693.314L154.39,661.261ZM790.647,506.604L790.647,693.314L752.451,693.314L752.451,506.604L790.647,506.604ZM548.645,561.095L548.645,693.314L510.181,693.314L510.181,561.095L548.645,561.095ZM862.233,561.095L862.233,693.314L823.769,693.314L823.769,561.095L862.233,561.095ZM424.706,561.629L427.644,576.053C435.835,564.3 447.588,558.424 462.903,558.424C475.368,558.424 486.141,562.43 495.223,570.444L479.196,600.894C473.142,596.442 466.108,594.216 458.095,594.216C449.369,594.216 442.068,596.932 436.192,602.363C430.315,607.795 427.377,615.229 427.377,624.667L427.377,693.314L388.913,693.314L388.913,561.629L424.706,561.629ZM646.942,592.347C636.97,592.347 628.689,595.507 622.101,601.829C615.512,608.151 612.218,616.654 612.218,627.338C612.218,638.023 615.512,646.481 622.101,652.714C628.689,658.946 636.97,662.063 646.942,662.063C657.27,662.063 665.684,658.679 672.184,651.912C678.684,645.146 681.933,637.399 681.933,628.674C681.933,618.702 678.817,610.154 672.585,603.031C666.352,595.908 657.804,592.347 646.942,592.347ZM106.577,548.541L74.257,624.4L138.63,624.4L106.577,548.541Z" style="fill:#fff;fill-rule:nonzero;"/><path d="M551.731,526.089C551.731,538.489 541.739,548.541 529.413,548.541C517.096,548.541 507.095,538.48 507.095,526.089C507.095,513.689 517.087,503.637 529.413,503.637L529.413,526.089L551.731,526.089Z" style="fill:#fff;"/><path d="M820.685,526.089C820.685,513.689 830.677,503.637 843.003,503.637C855.321,503.637 865.321,513.697 865.321,526.089C865.321,538.489 855.329,548.541 843.003,548.541L843.003,526.089L820.685,526.089Z" style="fill:#fff;"/></g><path d="M991.993,506.245C1010.88,506.245 1026.42,510.565 1038.63,519.206C1050.83,527.847 1056.93,540.451 1056.93,557.02C1056.93,575.014 1048.65,587.753 1032.08,595.236C1041.7,598.799 1049.23,604.723 1054.66,613.007C1060.09,621.291 1062.81,630.244 1062.81,639.865C1062.81,642.002 1062.45,645.209 1061.74,649.485C1056.4,678.703 1033.68,693.312 993.596,693.312L899.795,693.312L899.795,506.245L991.993,506.245ZM940.683,578.934L991.458,578.934C1007.67,578.934 1015.78,573.055 1015.78,561.296C1015.78,555.595 1013.73,551.007 1009.63,547.533C1005.53,544.059 999.654,542.322 991.993,542.322L940.683,542.322L940.683,578.934ZM940.683,656.968L991.993,656.968C1010.34,656.968 1019.52,649.841 1019.52,635.589C1019.52,628.819 1017.11,623.474 1012.3,619.554C1007.49,615.635 1000.54,613.675 991.458,613.675L940.683,613.675L940.683,656.968Z" style="fill:#1a1a1a;fill-rule:nonzero;"/><path d="M1205.52,678.481C1192.51,691.219 1174.87,697.588 1152.6,697.588C1130.33,697.588 1112.74,691.219 1099.82,678.481C1086.91,665.742 1080.45,648.773 1080.45,627.572C1080.45,607.439 1087.09,590.871 1100.36,577.865C1113.63,564.859 1131.05,558.357 1152.6,558.357C1174.34,558.357 1191.84,564.859 1205.12,577.865C1218.39,590.871 1225.03,607.439 1225.03,627.572C1225.03,648.773 1218.52,665.742 1205.52,678.481ZM1127.75,652.959C1133.27,659.907 1141.56,663.382 1152.6,663.382C1163.65,663.382 1171.98,659.952 1177.59,653.093C1183.2,646.234 1186.01,637.727 1186.01,627.572C1186.01,618.307 1183.16,610.201 1177.46,603.253C1171.76,596.305 1163.47,592.83 1152.6,592.83C1141.91,592.83 1133.72,596.305 1128.02,603.253C1122.32,610.201 1119.47,618.307 1119.47,627.572C1119.47,637.548 1122.23,646.011 1127.75,652.959Z" style="fill:#1a1a1a;fill-rule:nonzero;"/><path d="M1300.65,525.219L1300.65,562.098L1334.06,562.098L1334.06,594.167L1300.39,594.167L1300.39,644.942C1300.39,656.701 1305.38,662.58 1315.35,662.58C1321.77,662.58 1327.11,661.511 1331.39,659.373L1340.21,691.442C1332.9,694.47 1323.64,696.43 1312.41,697.321C1296.91,698.034 1284.66,694.337 1275.67,686.231C1266.67,678.124 1262.17,664.361 1262.17,644.942L1262.17,594.167L1238.65,594.167L1238.65,562.098L1262.17,562.098L1262.17,529.495L1300.65,525.219Z" style="fill:#1a1a1a;fill-rule:nonzero;"/></g></g><g transform="matrix(0.0733696,0,0,0.0733696,-482.957,-537.816)"><g transform="matrix(988.936,0,0,988.936,11118.2,18147.5)"><path d="M0.11,-0L0.11,-0.367L0.023,-0.367L0.023,-0.488L0.11,-0.488L0.11,-0.514C0.11,-0.581 0.13,-0.63 0.169,-0.664C0.208,-0.697 0.255,-0.713 0.31,-0.713C0.357,-0.713 0.402,-0.699 0.447,-0.671L0.398,-0.57C0.377,-0.583 0.354,-0.59 0.327,-0.59C0.304,-0.59 0.286,-0.584 0.274,-0.571C0.261,-0.558 0.254,-0.539 0.254,-0.514L0.254,-0.488L0.391,-0.488L0.391,-0.367L0.254,-0.367L0.254,-0L0.11,-0Z" style="fill:#fff;fill-rule:nonzero;"/></g><g transform="matrix(988.936,0,0,988.936,11519.7,18147.5)"><path d="M0.195,-0.493L0.206,-0.439C0.237,-0.483 0.281,-0.505 0.338,-0.505C0.385,-0.505 0.425,-0.49 0.459,-0.46L0.399,-0.346C0.376,-0.363 0.35,-0.371 0.32,-0.371C0.287,-0.371 0.26,-0.361 0.238,-0.341C0.216,-0.32 0.205,-0.292 0.205,-0.257L0.205,-0L0.061,-0L0.061,-0.493L0.195,-0.493Z" style="fill:#fff;fill-rule:nonzero;"/></g><g transform="matrix(988.936,0,0,988.936,11955.8,18147.5)"><path d="M0.5,-0.056C0.451,-0.008 0.385,0.016 0.302,0.016C0.219,0.016 0.153,-0.008 0.105,-0.056C0.056,-0.103 0.032,-0.167 0.032,-0.246C0.032,-0.321 0.057,-0.383 0.107,-0.432C0.156,-0.481 0.221,-0.505 0.302,-0.505C0.383,-0.505 0.449,-0.481 0.499,-0.432C0.548,-0.383 0.573,-0.321 0.573,-0.246C0.573,-0.167 0.549,-0.103 0.5,-0.056ZM0.209,-0.151C0.23,-0.125 0.261,-0.112 0.302,-0.112C0.343,-0.112 0.375,-0.125 0.396,-0.151C0.417,-0.176 0.427,-0.208 0.427,-0.246C0.427,-0.281 0.416,-0.311 0.395,-0.337C0.374,-0.363 0.343,-0.376 0.302,-0.376C0.262,-0.376 0.231,-0.363 0.21,-0.337C0.189,-0.311 0.178,-0.281 0.178,-0.246C0.178,-0.209 0.188,-0.177 0.209,-0.151Z" style="fill:#fff;fill-rule:nonzero;"/></g><g transform="matrix(988.936,0,0,988.936,12554.1,18147.5)"><path d="M0.386,-0L0.386,-0.265C0.386,-0.298 0.378,-0.325 0.362,-0.344C0.346,-0.363 0.323,-0.373 0.294,-0.373C0.267,-0.373 0.245,-0.362 0.229,-0.341C0.213,-0.32 0.205,-0.294 0.205,-0.264L0.205,-0L0.061,-0L0.061,-0.494L0.187,-0.494L0.197,-0.438C0.224,-0.483 0.267,-0.505 0.327,-0.505C0.396,-0.505 0.445,-0.474 0.472,-0.413C0.494,-0.446 0.518,-0.47 0.543,-0.484C0.568,-0.498 0.598,-0.505 0.635,-0.505C0.766,-0.505 0.832,-0.427 0.832,-0.27L0.832,-0L0.687,-0L0.687,-0.267C0.687,-0.301 0.682,-0.327 0.671,-0.344C0.66,-0.361 0.64,-0.37 0.612,-0.37C0.585,-0.37 0.564,-0.36 0.55,-0.34C0.535,-0.32 0.528,-0.295 0.528,-0.265L0.528,-0L0.386,-0Z" style="fill:#fff;fill-rule:nonzero;"/></g><g transform="matrix(988.936,0,0,988.936,13664.7,18147.5)"><path d="M0.687,-0.486L0.471,-0.214L0.443,-0.214L0.234,-0.488L0.234,0.001L0.078,0.001L0.078,-0.699L0.257,-0.699L0.461,-0.43L0.666,-0.699L0.843,-0.699L0.843,0.001L0.687,0.001L0.687,-0.486Z" style="fill:#1a1a1a;fill-rule:nonzero;"/></g><g transform="matrix(988.936,0,0,988.936,14575.5,18147.5)"><path d="M0.075,-0.565C0.059,-0.579 0.051,-0.599 0.051,-0.625C0.051,-0.651 0.059,-0.671 0.075,-0.685C0.091,-0.699 0.11,-0.706 0.133,-0.706C0.156,-0.706 0.175,-0.699 0.191,-0.685C0.207,-0.671 0.215,-0.651 0.215,-0.625C0.215,-0.599 0.207,-0.579 0.191,-0.565C0.175,-0.551 0.156,-0.544 0.133,-0.544C0.11,-0.544 0.091,-0.551 0.075,-0.565ZM0.205,-0.495L0.205,-0L0.061,-0L0.061,-0.495L0.205,-0.495Z" style="fill:#1a1a1a;fill-rule:nonzero;"/></g><g transform="matrix(988.936,0,0,988.936,14838.6,18147.5)"><path d="M0.495,-0.063C0.445,-0.01 0.381,0.016 0.302,0.016C0.225,0.016 0.16,-0.006 0.109,-0.051C0.058,-0.095 0.032,-0.159 0.032,-0.244C0.032,-0.324 0.058,-0.388 0.11,-0.435C0.162,-0.482 0.226,-0.505 0.301,-0.505C0.377,-0.505 0.437,-0.482 0.48,-0.435L0.4,-0.344C0.374,-0.363 0.343,-0.373 0.307,-0.373C0.27,-0.373 0.239,-0.362 0.214,-0.339C0.189,-0.316 0.177,-0.284 0.177,-0.244C0.177,-0.206 0.189,-0.176 0.214,-0.154C0.239,-0.131 0.269,-0.12 0.304,-0.12C0.321,-0.12 0.34,-0.123 0.359,-0.13C0.378,-0.137 0.393,-0.146 0.404,-0.157L0.495,-0.063Z" style="fill:#1a1a1a;fill-rule:nonzero;"/></g><g transform="matrix(988.936,0,0,988.936,15327.1,18147.5)"><path d="M0.443,-0.494L0.578,-0.494L0.578,-0L0.448,-0L0.44,-0.062C0.425,-0.036 0.403,-0.017 0.374,-0.004C0.345,0.009 0.316,0.015 0.288,0.015C0.213,0.015 0.151,-0.009 0.104,-0.056C0.057,-0.103 0.033,-0.167 0.033,-0.247C0.033,-0.326 0.057,-0.388 0.105,-0.435C0.152,-0.482 0.212,-0.505 0.285,-0.505C0.359,-0.505 0.41,-0.482 0.438,-0.437L0.443,-0.494ZM0.307,-0.378C0.27,-0.378 0.239,-0.366 0.214,-0.343C0.189,-0.319 0.177,-0.287 0.177,-0.247C0.177,-0.207 0.189,-0.175 0.214,-0.152C0.239,-0.129 0.27,-0.117 0.307,-0.117C0.346,-0.117 0.377,-0.13 0.402,-0.155C0.426,-0.18 0.438,-0.209 0.438,-0.242C0.438,-0.279 0.426,-0.311 0.403,-0.338C0.38,-0.365 0.348,-0.378 0.307,-0.378Z" style="fill:#1a1a1a;fill-rule:nonzero;"/></g><g transform="matrix(988.936,0,0,988.936,15959,18147.5)"><path d="M0.206,-0.7L0.206,-0.435C0.241,-0.481 0.291,-0.504 0.356,-0.504C0.487,-0.504 0.553,-0.425 0.553,-0.267L0.553,-0L0.409,-0L0.409,-0.266C0.409,-0.3 0.401,-0.326 0.384,-0.345C0.367,-0.364 0.344,-0.373 0.315,-0.373C0.284,-0.373 0.258,-0.363 0.236,-0.342C0.216,-0.321 0.205,-0.291 0.205,-0.252L0.205,-0L0.061,-0L0.061,-0.7L0.206,-0.7Z" style="fill:#1a1a1a;fill-rule:nonzero;"/></g><g transform="matrix(988.936,0,0,988.936,16793.7,18147.5)"><path d="M0.234,-0.7L0.234,-0.143L0.584,-0.143L0.584,-0L0.078,-0L0.078,-0.7L0.234,-0.7Z" style="fill:#1a1a1a;fill-rule:nonzero;"/></g><g transform="matrix(988.936,0,0,988.936,17387.1,18147.5)"><path d="M0.075,-0.565C0.059,-0.579 0.051,-0.599 0.051,-0.625C0.051,-0.651 0.059,-0.671 0.075,-0.685C0.091,-0.699 0.11,-0.706 0.133,-0.706C0.156,-0.706 0.175,-0.699 0.191,-0.685C0.207,-0.671 0.215,-0.651 0.215,-0.625C0.215,-0.599 0.207,-0.579 0.191,-0.565C0.175,-0.551 0.156,-0.544 0.133,-0.544C0.11,-0.544 0.091,-0.551 0.075,-0.565ZM0.205,-0.495L0.205,-0L0.061,-0L0.061,-0.495L0.205,-0.495Z" style="fill:#1a1a1a;fill-rule:nonzero;"/></g><g transform="matrix(988.936,0,0,988.936,17650.1,18147.5)"><path d="M0.417,-0L0.417,-0.261C0.417,-0.338 0.383,-0.376 0.315,-0.376C0.282,-0.376 0.256,-0.364 0.234,-0.341C0.214,-0.317 0.203,-0.288 0.203,-0.255L0.203,-0L0.061,-0L0.061,-0.494L0.191,-0.494L0.196,-0.431C0.234,-0.48 0.286,-0.505 0.351,-0.505C0.416,-0.505 0.467,-0.487 0.505,-0.451C0.543,-0.415 0.562,-0.352 0.562,-0.262L0.562,-0L0.417,-0Z" style="fill:#1a1a1a;fill-rule:nonzero;"/></g><g transform="matrix(988.936,0,0,988.936,18259.3,18147.5)"><path d="M0.579,-0.699L0.579,-0L0.45,-0L0.441,-0.063C0.419,-0.033 0.395,-0.013 0.369,-0.002C0.342,0.009 0.312,0.014 0.277,0.014C0.205,0.014 0.146,-0.01 0.101,-0.059C0.056,-0.108 0.033,-0.17 0.033,-0.247C0.033,-0.326 0.056,-0.388 0.101,-0.435C0.146,-0.481 0.206,-0.504 0.279,-0.504C0.344,-0.504 0.395,-0.481 0.434,-0.434L0.434,-0.699L0.579,-0.699ZM0.299,-0.374C0.262,-0.374 0.232,-0.362 0.211,-0.339C0.189,-0.316 0.178,-0.285 0.178,-0.247C0.178,-0.21 0.189,-0.18 0.211,-0.156C0.232,-0.132 0.262,-0.12 0.299,-0.12C0.336,-0.12 0.367,-0.13 0.393,-0.151C0.419,-0.172 0.432,-0.204 0.432,-0.247C0.432,-0.287 0.419,-0.318 0.393,-0.341C0.366,-0.363 0.335,-0.374 0.299,-0.374Z" style="fill:#1a1a1a;fill-rule:nonzero;"/></g><g transform="matrix(988.936,0,0,988.936,18892.2,18147.5)"><rect x="0.063" y="-0.699" width="0.143" height="0.699" style="fill:#1a1a1a;fill-rule:nonzero;"/></g><g transform="matrix(988.936,0,0,988.936,19158.2,18147.5)"><path d="M0.179,-0.197C0.183,-0.172 0.197,-0.151 0.22,-0.134C0.243,-0.117 0.274,-0.108 0.313,-0.108C0.369,-0.108 0.412,-0.121 0.441,-0.147L0.522,-0.057C0.473,-0.008 0.402,0.016 0.31,0.016C0.222,0.016 0.154,-0.008 0.106,-0.057C0.057,-0.105 0.033,-0.169 0.033,-0.249C0.033,-0.324 0.057,-0.386 0.105,-0.433C0.152,-0.48 0.216,-0.504 0.295,-0.504C0.372,-0.504 0.433,-0.483 0.478,-0.442C0.524,-0.401 0.547,-0.341 0.547,-0.264C0.547,-0.239 0.545,-0.217 0.542,-0.197L0.179,-0.197ZM0.413,-0.302C0.412,-0.327 0.4,-0.347 0.377,-0.361C0.354,-0.374 0.327,-0.381 0.295,-0.381C0.266,-0.381 0.241,-0.374 0.221,-0.36C0.2,-0.346 0.186,-0.327 0.179,-0.302L0.413,-0.302Z" style="fill:#1a1a1a;fill-rule:nonzero;"/></g><g transform="matrix(988.936,0,0,988.936,19728.9,18147.5)"><path d="M0.568,-0.494L0.265,0.222L0.108,0.222L0.21,-0.015L0.003,-0.494L0.165,-0.494L0.288,-0.183L0.409,-0.494L0.568,-0.494Z" style="fill:#1a1a1a;fill-rule:nonzero;"/></g></g></g></svg>