<?xml version="1.0" encoding="UTF-8" standalone="no"?><!DOCTYPE svg PUBLIC "-//W3C//DTD SVG 1.1//EN" "http://www.w3.org/Graphics/SVG/1.1/DTD/svg11.dtd"><svg width="83px" height="31px" version="1.1" xmlns="http://www.w3.org/2000/svg" xmlns:xlink="http://www.w3.org/1999/xlink" xml:space="preserve" xmlns:serif="http://www.serif.com/" style="fill-rule:evenodd;clip-rule:evenodd;stroke-linejoin:round;stroke-miterlimit:2;"><path d="M66.752,30.589L15.295,30.589C6.853,30.589 0,23.736 0,15.295C0,6.853 6.853,0 15.295,0L66.752,0C75.194,0 82.047,6.853 82.047,15.295C82.047,23.736 75.194,30.589 66.752,30.589ZM61.066,18.44L68.94,18.44C69.013,18.006 69.049,17.521 69.049,16.986C69.049,15.309 68.554,14.022 67.563,13.125C66.572,12.229 65.246,11.78 63.583,11.78C61.862,11.78 60.484,12.294 59.45,13.321C58.416,14.347 57.899,15.678 57.899,17.312C57.899,19.047 58.424,20.439 59.472,21.487C60.521,22.536 61.999,23.06 63.908,23.06C65.904,23.06 67.437,22.532 68.507,21.477L66.75,19.524C66.113,20.088 65.188,20.37 63.973,20.37C63.134,20.37 62.462,20.186 61.956,19.817C61.45,19.448 61.153,18.989 61.066,18.44ZM66.142,16.162L61.066,16.162C61.226,15.627 61.526,15.208 61.967,14.904C62.408,14.6 62.946,14.449 63.583,14.449C64.277,14.449 64.87,14.597 65.361,14.893C65.853,15.19 66.113,15.613 66.142,16.162ZM46.338,22.713L49.418,22.713L49.418,16.965C49.418,16.314 49.574,15.772 49.884,15.338C50.195,14.904 50.647,14.687 51.24,14.687C51.848,14.687 52.271,14.875 52.509,15.251C52.748,15.627 52.867,16.184 52.867,16.921L52.867,22.713L56.012,22.713L56.012,16.856C56.012,13.458 54.588,11.759 51.739,11.759C50.944,11.759 50.275,11.911 49.733,12.214C49.19,12.518 48.681,13.031 48.203,13.754C47.61,12.424 46.562,11.759 45.058,11.759C43.757,11.759 42.817,12.243 42.238,13.212L42.021,11.997L39.288,11.997L39.288,22.713L42.412,22.713L42.412,16.986C42.412,16.336 42.585,15.779 42.932,15.316C43.279,14.853 43.749,14.622 44.342,14.622C44.979,14.622 45.47,14.832 45.817,15.251C46.164,15.67 46.338,16.242 46.338,16.965L46.338,22.713ZM16.143,7.529L12.998,7.529L12.998,22.713L16.122,22.713L16.122,17.247C16.122,16.408 16.349,15.761 16.805,15.305C17.26,14.85 17.828,14.622 18.508,14.622C19.129,14.622 19.625,14.825 19.994,15.229C20.362,15.634 20.547,16.206 20.547,16.943L20.547,22.713L23.67,22.713L23.67,16.921C23.67,13.494 22.246,11.78 19.397,11.78C17.994,11.78 16.91,12.279 16.143,13.277L16.143,7.529ZM35.687,21.509C36.743,20.475 37.271,19.098 37.271,17.377C37.271,15.743 36.732,14.398 35.655,13.342C34.577,12.287 33.157,11.759 31.392,11.759C29.643,11.759 28.229,12.287 27.152,13.342C26.074,14.398 25.536,15.743 25.536,17.377C25.536,19.098 26.06,20.475 27.108,21.509C28.157,22.543 29.585,23.06 31.392,23.06C33.2,23.06 34.632,22.543 35.687,21.509ZM29.375,19.438C28.927,18.874 28.703,18.187 28.703,17.377C28.703,16.625 28.934,15.967 29.397,15.403C29.86,14.839 30.525,14.557 31.392,14.557C32.275,14.557 32.947,14.839 33.41,15.403C33.872,15.967 34.104,16.625 34.104,17.377C34.104,18.201 33.876,18.892 33.421,19.448C32.965,20.005 32.289,20.284 31.392,20.284C30.496,20.284 29.823,20.002 29.375,19.438Z" style="fill:#fff;"/></svg>