<?xml version="1.0" encoding="UTF-8" standalone="no"?><!DOCTYPE svg PUBLIC "-//W3C//DTD SVG 1.1//EN" "http://www.w3.org/Graphics/SVG/1.1/DTD/svg11.dtd"><svg width="2422px" height="993px" version="1.1" xmlns="http://www.w3.org/2000/svg" xmlns:xlink="http://www.w3.org/1999/xlink" xml:space="preserve" xmlns:serif="http://www.serif.com/" style="fill-rule:evenodd;clip-rule:evenodd;stroke-linejoin:round;stroke-miterlimit:2;"><g><g><path d="M781.573,571.113L781.573,682.903C796.474,663.498 817.56,653.796 844.832,653.796C900.219,653.796 927.912,687.122 927.912,753.774L927.912,866.409L867.184,866.409L867.184,754.196C867.184,739.853 863.599,728.744 856.43,720.87C849.26,712.995 839.631,709.058 827.541,709.058C814.327,709.058 803.292,713.488 794.436,722.346C785.579,731.205 781.151,743.79 781.151,760.102L781.151,866.409L720.423,866.409L720.423,571.113L781.573,571.113Z" style="fill:#fff;fill-rule:nonzero;"/><path d="M1137.51,658.014L1194.44,658.014L1194.44,866.409L1139.62,866.409L1136.25,840.254C1130.06,851.222 1120.78,859.378 1108.41,864.721C1096.04,870.065 1083.95,872.736 1072.14,872.736C1040.37,872.736 1014.51,862.752 994.545,842.785C974.583,822.817 964.603,795.959 964.603,762.211C964.603,729.026 974.654,702.59 994.756,682.903C1014.86,663.217 1040.23,653.374 1070.88,653.374C1102.09,653.374 1123.59,662.936 1135.4,682.06L1137.51,658.014ZM1080.16,706.949C1064.41,706.949 1051.34,711.941 1040.93,721.925C1030.53,731.908 1025.33,745.337 1025.33,762.211C1025.33,779.085 1030.53,792.444 1040.93,802.287C1051.34,812.13 1064.41,817.052 1080.16,817.052C1096.46,817.052 1109.75,811.708 1120.01,801.022C1130.27,790.335 1135.4,778.101 1135.4,764.321C1135.4,748.571 1130.48,735.072 1120.64,723.823C1110.8,712.573 1097.31,706.949 1080.16,706.949Z" style="fill:#fff;fill-rule:nonzero;"/><path d="M1396.03,866.409L1396.03,756.305C1396.03,723.963 1381.69,707.793 1353.01,707.793C1339.24,707.793 1327.92,712.784 1319.06,722.768C1310.21,732.752 1305.78,744.775 1305.78,758.836L1305.78,866.409L1245.89,866.409L1245.89,658.014L1300.72,658.014L1302.83,684.591C1318.85,663.779 1340.64,653.374 1368.19,653.374C1395.47,653.374 1417.12,660.967 1433.14,676.154C1449.17,691.34 1457.18,717.917 1457.18,755.884L1457.18,866.409L1396.03,866.409Z" style="fill:#fff;fill-rule:nonzero;"/><path d="M1553.33,896.36C1555.3,924.483 1572.73,938.545 1605.63,938.545C1619.97,938.545 1632.13,935.241 1642.11,928.632C1652.09,922.023 1657.08,912.531 1657.08,900.157C1657.08,876.252 1640.21,864.299 1606.47,864.299C1572.17,864.299 1544.83,854.808 1524.44,835.824C1504.06,816.841 1493.87,791.319 1493.87,759.258C1493.87,725.791 1504.84,699.707 1526.77,681.005C1548.69,662.303 1575.26,652.952 1606.47,652.952C1628.4,652.952 1644.71,656.749 1655.39,664.342L1678.16,634.812L1722.02,668.56L1695.45,700.199C1709.79,717.636 1716.96,736.197 1716.96,755.884C1716.96,791.881 1702.06,817.614 1672.26,833.082C1703.19,846.582 1718.65,868.94 1718.65,900.157C1718.65,929.405 1707.55,952.044 1685.33,968.075C1663.12,984.105 1636.55,992.12 1605.63,992.12C1569.64,992.12 1542.37,983.753 1523.81,967.02C1505.26,950.287 1496.26,926.733 1496.82,896.36L1553.33,896.36ZM1606.47,706.949C1590.44,706.949 1577.44,711.589 1567.46,720.87C1557.48,730.151 1552.49,742.947 1552.49,759.258C1552.49,774.164 1557.55,786.187 1567.67,795.327C1577.79,804.467 1590.73,809.037 1606.47,809.037C1621.09,809.037 1633.46,804.678 1643.58,795.959C1653.7,787.241 1658.77,775.007 1658.77,759.258C1658.77,744.634 1653.78,732.26 1643.79,722.135C1633.81,712.011 1621.37,706.949 1606.47,706.949Z" style="fill:#fff;fill-rule:nonzero;"/><path d="M1946.38,842.996C1925.86,863.104 1898.03,873.158 1862.88,873.158C1827.74,873.158 1799.97,863.104 1779.59,842.996C1759.21,822.888 1749.02,796.1 1749.02,762.633C1749.02,730.854 1759.49,704.699 1780.43,684.169C1801.38,663.639 1828.86,653.374 1862.88,653.374C1897.18,653.374 1924.81,663.639 1945.75,684.169C1966.7,704.699 1977.17,730.854 1977.17,762.633C1977.17,796.1 1966.91,822.888 1946.38,842.996ZM1823.66,802.709C1832.38,813.677 1845.45,819.161 1862.88,819.161C1880.31,819.161 1893.46,813.747 1902.31,802.92C1911.17,792.092 1915.6,778.663 1915.6,762.633C1915.6,748.009 1911.1,735.213 1902.1,724.245C1893.11,713.277 1880.03,707.793 1862.88,707.793C1846.01,707.793 1833.08,713.277 1824.08,724.245C1815.09,735.213 1810.59,748.009 1810.59,762.633C1810.59,778.382 1814.94,791.741 1823.66,802.709Z" style="fill:#fff;fill-rule:nonzero;"/><path d="M2074.59,658.014L2074.59,770.648C2074.59,802.99 2088.93,819.161 2117.6,819.161C2131.38,819.161 2142.7,814.169 2151.55,804.185C2160.41,794.202 2164.84,782.179 2164.84,768.117L2164.84,658.014L2224.72,658.014L2224.72,866.83L2169.9,866.83L2167.79,841.519C2152.05,862.612 2130.26,873.158 2102.42,873.158C2089.49,873.158 2078.03,871.611 2068.05,868.518C2058.07,865.424 2048.79,860.292 2040.22,853.12C2031.64,845.949 2025.04,835.402 2020.4,821.481C2015.76,807.56 2013.44,790.757 2013.44,771.07L2013.44,658.014L2074.59,658.014Z" style="fill:#fff;fill-rule:nonzero;"/><path d="M2358.83,601.064L2358.83,659.28L2411.55,659.28L2411.55,709.902L2358.41,709.902L2358.41,790.053C2358.41,808.615 2366.28,817.896 2382.03,817.896C2392.15,817.896 2400.58,816.208 2407.33,812.833L2421.25,863.456C2409.72,868.237 2395.1,871.33 2377.39,872.736C2352.93,873.861 2333.6,868.026 2319.4,855.229C2305.2,842.433 2298.1,820.708 2298.1,790.053L2298.1,709.902L2260.99,709.902L2260.99,659.28L2298.1,659.28L2298.1,607.814L2358.83,601.064Z" style="fill:#fff;fill-rule:nonzero;"/><path d="M882.281,324.388L882.281,382.604L934.997,382.604L934.997,433.226L881.859,433.226L881.859,513.378C881.859,531.939 889.731,541.22 905.476,541.22C915.597,541.22 924.032,539.532 930.779,536.158L944.696,586.78C933.169,591.561 918.549,594.654 900.837,596.06C876.377,597.185 857.047,591.35 842.849,578.554C828.651,565.757 821.552,544.032 821.552,513.378L821.552,433.226L784.44,433.226L784.44,382.604L821.552,382.604L821.552,331.138L882.281,324.388Z" style="fill:#fff;fill-rule:nonzero;"/><path d="M1137.43,381.338L1194.36,381.338L1194.36,589.733L1139.53,589.733L1136.16,563.578C1129.98,574.546 1120.7,582.702 1108.33,588.045C1095.96,593.389 1083.87,596.06 1072.06,596.06C1040.29,596.06 1014.42,586.077 994.46,566.109C974.498,546.141 964.518,519.283 964.518,485.535C964.518,452.35 974.569,425.914 994.671,406.227C1014.77,386.541 1040.15,376.698 1070.79,376.698C1102,376.698 1123.51,386.26 1135.32,405.384L1137.43,381.338ZM1080.07,430.273C1064.33,430.273 1051.25,435.265 1040.85,445.249C1030.45,455.232 1025.25,468.661 1025.25,485.535C1025.25,502.409 1030.45,515.768 1040.85,525.611C1051.25,535.454 1064.33,540.376 1080.07,540.376C1096.38,540.376 1109.66,535.033 1119.92,524.346C1130.19,513.659 1135.32,501.425 1135.32,487.645C1135.32,471.896 1130.4,458.396 1120.56,447.147C1110.72,435.898 1097.22,430.273 1080.07,430.273Z" style="fill:#fff;fill-rule:nonzero;"/><rect x="1247.08" y="295.702" width="54.825" height="114.322" style="fill:#fff;fill-rule:nonzero;"/><path d="M1485.77,440.819C1471.15,430.976 1454.7,426.054 1436.43,426.054C1426.87,426.054 1419.49,427.601 1414.29,430.695C1409.09,433.788 1406.49,437.866 1406.49,442.928C1406.49,454.74 1416.75,460.787 1437.27,461.068C1449.36,461.349 1459.98,462.404 1469.11,464.232C1478.25,466.06 1487.67,469.153 1497.37,473.513C1507.07,477.872 1514.59,484.692 1519.93,493.972C1525.27,503.253 1527.94,514.643 1527.94,528.142C1527.94,546.704 1520.42,562.875 1505.38,576.655C1490.34,590.436 1467.5,597.326 1436.85,597.326C1400.02,597.326 1367.41,585.514 1339.01,561.89L1365.16,519.705C1386.53,536.579 1411.27,545.016 1439.38,545.016C1448.1,545.016 1455.27,543.399 1460.89,540.165C1466.51,536.931 1469.18,532.923 1468.9,528.142C1468.9,516.893 1457.1,510.706 1433.48,509.581C1423.08,509.3 1413.02,507.893 1403.32,505.362C1393.62,502.831 1384.35,499.105 1375.49,494.183C1366.63,489.262 1359.54,482.371 1354.19,473.513C1348.85,464.654 1346.18,454.459 1346.18,442.928C1346.18,421.273 1354.9,404.751 1372.33,393.361C1389.76,381.971 1410.99,376.276 1436.01,376.276C1468.34,376.276 1494.91,385.275 1515.71,403.274L1485.77,440.819Z" style="fill:#fff;fill-rule:nonzero;"/></g><g><path d="M0,382.931L0,488.576L308.031,488.576L308.031,382.931L0,382.931Z" style="fill:#fff;"/><path d="M0,746.48L0,872.736L126.256,872.736L126.256,746.48L0,746.48Z" style="fill:#fff;"/><rect x="385.423" y="382.931" width="105.645" height="306.237" style="fill:#fff;"/><rect x="385.423" y="0" width="105.645" height="306.237" style="fill:#fff;"/><rect x="202.386" y="564.705" width="105.645" height="308.031" style="fill:#fff;"/><path d="M567.762,872.736L567.762,767.091L385.423,767.091L385.423,872.736L567.762,872.736Z" style="fill:#fff;"/><path d="M280.662,670.351L280.662,564.705L0,564.705L0,670.351L280.662,670.351Z" style="fill:#fff;"/></g></g></svg>