<?xml version="1.0" encoding="UTF-8" standalone="no"?><!DOCTYPE svg PUBLIC "-//W3C//DTD SVG 1.1//EN" "http://www.w3.org/Graphics/SVG/1.1/DTD/svg11.dtd"><svg width="2422px" height="898px" version="1.1" xmlns="http://www.w3.org/2000/svg" xmlns:xlink="http://www.w3.org/1999/xlink" xml:space="preserve" xmlns:serif="http://www.serif.com/" style="fill-rule:evenodd;clip-rule:evenodd;stroke-linejoin:round;stroke-miterlimit:2;"><g><g transform="matrix(8.2105,-1.0055e-15,1.0055e-15,8.2105,-3224.31,-5742.19)"><g transform="matrix(50.8163,0,0,50.8163,480.933,748.751)"><path d="M0.243,-0.49L0.379,-0.49L0.379,-0.385L0.242,-0.385L0.242,-0.168C0.242,-0.145 0.248,-0.128 0.259,-0.116C0.27,-0.104 0.286,-0.098 0.306,-0.098C0.324,-0.098 0.344,-0.103 0.365,-0.113L0.399,-0.009C0.38,-0.001 0.363,0.004 0.345,0.007C0.329,0.01 0.309,0.012 0.288,0.012C0.236,0.012 0.195,-0.003 0.166,-0.034C0.136,-0.065 0.121,-0.109 0.121,-0.168L0.121,-0.385L0.029,-0.385L0.029,-0.49L0.121,-0.49L0.121,-0.619L0.243,-0.632L0.243,-0.49Z" style="fill:#fff;fill-rule:nonzero;"/></g><g transform="matrix(50.8163,0,0,50.8163,502.022,748.751)"><path d="M0.572,-0.493L0.572,-0L0.457,-0L0.451,-0.072C0.438,-0.045 0.415,-0.023 0.384,-0.008C0.353,0.007 0.322,0.015 0.291,0.015C0.241,0.015 0.197,0.005 0.159,-0.015C0.121,-0.035 0.091,-0.065 0.07,-0.104C0.048,-0.143 0.037,-0.191 0.037,-0.247C0.037,-0.302 0.048,-0.349 0.07,-0.389C0.093,-0.428 0.123,-0.457 0.162,-0.476C0.201,-0.495 0.245,-0.505 0.294,-0.505C0.327,-0.505 0.358,-0.498 0.387,-0.484C0.416,-0.469 0.437,-0.45 0.451,-0.425L0.455,-0.493L0.572,-0.493ZM0.305,-0.396C0.263,-0.396 0.228,-0.383 0.201,-0.356C0.173,-0.329 0.159,-0.293 0.159,-0.247C0.159,-0.201 0.173,-0.165 0.201,-0.138C0.228,-0.111 0.263,-0.097 0.305,-0.097C0.336,-0.097 0.362,-0.104 0.384,-0.118C0.405,-0.132 0.422,-0.151 0.433,-0.173C0.444,-0.197 0.449,-0.221 0.449,-0.247C0.449,-0.272 0.444,-0.297 0.433,-0.32C0.422,-0.343 0.405,-0.361 0.384,-0.375C0.362,-0.389 0.336,-0.396 0.305,-0.396Z" style="fill:#fff;fill-rule:nonzero;"/></g><g transform="matrix(50.8163,0,0,50.8163,534.442,748.751)"><rect x="0.067" y="-0.699" width="0.111" height="0.268" style="fill:#fff;fill-rule:nonzero;"/></g><g transform="matrix(50.8163,0,0,50.8163,546.892,748.751)"><path d="M0.376,-0.362C0.344,-0.391 0.303,-0.406 0.254,-0.406C0.225,-0.406 0.202,-0.402 0.187,-0.393C0.172,-0.384 0.164,-0.372 0.164,-0.357C0.164,-0.325 0.195,-0.307 0.256,-0.303C0.317,-0.3 0.367,-0.287 0.407,-0.265C0.447,-0.243 0.467,-0.203 0.467,-0.146C0.467,-0.116 0.459,-0.089 0.443,-0.065C0.426,-0.04 0.402,-0.021 0.371,-0.006C0.339,0.009 0.3,0.016 0.255,0.016C0.21,0.016 0.169,0.01 0.132,-0.002C0.095,-0.014 0.06,-0.037 0.027,-0.072L0.087,-0.159C0.11,-0.136 0.137,-0.118 0.168,-0.107C0.199,-0.096 0.23,-0.09 0.261,-0.09C0.285,-0.09 0.305,-0.095 0.322,-0.105C0.338,-0.114 0.346,-0.127 0.346,-0.144C0.346,-0.161 0.338,-0.174 0.323,-0.183C0.308,-0.192 0.283,-0.198 0.248,-0.2C0.191,-0.205 0.143,-0.219 0.103,-0.242C0.064,-0.265 0.044,-0.302 0.044,-0.353C0.044,-0.389 0.055,-0.419 0.076,-0.442C0.097,-0.465 0.123,-0.481 0.155,-0.491C0.186,-0.501 0.219,-0.506 0.252,-0.506C0.292,-0.506 0.327,-0.501 0.358,-0.492C0.388,-0.482 0.417,-0.465 0.444,-0.442L0.376,-0.362Z" style="fill:#fff;fill-rule:nonzero;"/></g><g transform="matrix(50.8163,0,0,50.8163,480.933,793.583)"><path d="M0.188,-0.43C0.226,-0.479 0.277,-0.504 0.342,-0.504C0.41,-0.504 0.461,-0.483 0.494,-0.441C0.527,-0.398 0.544,-0.339 0.544,-0.264L0.544,-0L0.422,-0L0.422,-0.263C0.422,-0.306 0.412,-0.339 0.392,-0.36C0.372,-0.381 0.345,-0.391 0.31,-0.391C0.275,-0.391 0.246,-0.378 0.223,-0.352C0.2,-0.326 0.188,-0.294 0.188,-0.256L0.188,-0L0.066,-0L0.066,-0.7L0.188,-0.7L0.188,-0.43Z" style="fill:#fff;fill-rule:nonzero;"/></g><g transform="matrix(50.8163,0,0,50.8163,511.575,793.583)"><path d="M0.572,-0.493L0.572,-0L0.457,-0L0.451,-0.072C0.438,-0.045 0.415,-0.023 0.384,-0.008C0.353,0.007 0.322,0.015 0.291,0.015C0.241,0.015 0.197,0.005 0.159,-0.015C0.121,-0.035 0.091,-0.065 0.07,-0.104C0.048,-0.143 0.037,-0.191 0.037,-0.247C0.037,-0.302 0.048,-0.349 0.07,-0.389C0.093,-0.428 0.123,-0.457 0.162,-0.476C0.201,-0.495 0.245,-0.505 0.294,-0.505C0.327,-0.505 0.358,-0.498 0.387,-0.484C0.416,-0.469 0.437,-0.45 0.451,-0.425L0.455,-0.493L0.572,-0.493ZM0.305,-0.396C0.263,-0.396 0.228,-0.383 0.201,-0.356C0.173,-0.329 0.159,-0.293 0.159,-0.247C0.159,-0.201 0.173,-0.165 0.201,-0.138C0.228,-0.111 0.263,-0.097 0.305,-0.097C0.336,-0.097 0.362,-0.104 0.384,-0.118C0.405,-0.132 0.422,-0.151 0.433,-0.173C0.444,-0.197 0.449,-0.221 0.449,-0.247C0.449,-0.272 0.444,-0.297 0.433,-0.32C0.422,-0.343 0.405,-0.361 0.384,-0.375C0.362,-0.389 0.336,-0.396 0.305,-0.396Z" style="fill:#fff;fill-rule:nonzero;"/></g><g transform="matrix(50.8163,0,0,50.8163,543.996,793.583)"><path d="M0.432,-0.261C0.432,-0.3 0.422,-0.331 0.401,-0.356C0.38,-0.381 0.35,-0.393 0.313,-0.393C0.276,-0.393 0.245,-0.38 0.222,-0.353C0.199,-0.326 0.187,-0.294 0.187,-0.255L0.187,-0L0.066,-0L0.066,-0.493L0.175,-0.493L0.183,-0.43C0.208,-0.457 0.233,-0.476 0.258,-0.487C0.283,-0.498 0.312,-0.504 0.345,-0.504C0.384,-0.504 0.42,-0.495 0.452,-0.475C0.483,-0.457 0.508,-0.429 0.527,-0.392C0.545,-0.355 0.554,-0.312 0.554,-0.262L0.554,-0L0.432,-0L0.432,-0.261Z" style="fill:#fff;fill-rule:nonzero;"/></g><g transform="matrix(50.8163,0,0,50.8163,575.146,793.583)"><path d="M0.579,-0.475L0.517,-0.403C0.538,-0.378 0.552,-0.354 0.561,-0.331C0.57,-0.308 0.574,-0.283 0.574,-0.256C0.574,-0.17 0.533,-0.108 0.452,-0.071C0.499,-0.054 0.531,-0.031 0.548,-0.002C0.565,0.027 0.574,0.058 0.574,0.089C0.574,0.134 0.561,0.172 0.536,0.203C0.51,0.234 0.476,0.258 0.436,0.273C0.395,0.289 0.351,0.297 0.305,0.297C0.22,0.297 0.153,0.277 0.106,0.236C0.059,0.196 0.036,0.141 0.039,0.07L0.16,0.07C0.157,0.103 0.171,0.129 0.2,0.149C0.229,0.169 0.264,0.179 0.305,0.179C0.342,0.179 0.375,0.171 0.404,0.155C0.433,0.14 0.447,0.118 0.447,0.089C0.447,0.058 0.435,0.034 0.411,0.017C0.387,0 0.352,-0.008 0.307,-0.008C0.253,-0.008 0.206,-0.018 0.165,-0.038C0.124,-0.058 0.093,-0.087 0.07,-0.124C0.048,-0.161 0.037,-0.205 0.037,-0.256C0.037,-0.309 0.05,-0.355 0.075,-0.393C0.1,-0.43 0.133,-0.459 0.174,-0.477C0.215,-0.497 0.26,-0.506 0.307,-0.506C0.329,-0.506 0.352,-0.503 0.376,-0.499C0.399,-0.494 0.419,-0.486 0.434,-0.475L0.489,-0.543L0.579,-0.475ZM0.307,-0.393C0.264,-0.393 0.229,-0.381 0.201,-0.358C0.173,-0.334 0.159,-0.3 0.159,-0.256C0.159,-0.215 0.173,-0.182 0.202,-0.157C0.231,-0.132 0.266,-0.12 0.307,-0.12C0.348,-0.12 0.383,-0.133 0.41,-0.158C0.438,-0.183 0.452,-0.215 0.452,-0.256C0.452,-0.297 0.438,-0.331 0.41,-0.356C0.383,-0.381 0.348,-0.393 0.307,-0.393Z" style="fill:#fff;fill-rule:nonzero;"/></g><g transform="matrix(50.8163,0,0,50.8163,606.5,793.583)"><path d="M0.291,-0.505C0.342,-0.505 0.388,-0.493 0.427,-0.47C0.466,-0.447 0.497,-0.415 0.519,-0.376C0.54,-0.337 0.551,-0.293 0.551,-0.246C0.551,-0.198 0.541,-0.154 0.52,-0.115C0.499,-0.075 0.468,-0.043 0.429,-0.021C0.39,0.002 0.344,0.014 0.292,0.014C0.24,0.014 0.195,0.002 0.156,-0.021C0.117,-0.043 0.086,-0.075 0.066,-0.115C0.045,-0.154 0.034,-0.198 0.034,-0.246C0.034,-0.293 0.045,-0.337 0.066,-0.376C0.087,-0.415 0.117,-0.447 0.157,-0.47C0.196,-0.493 0.24,-0.505 0.291,-0.505ZM0.292,-0.392C0.25,-0.392 0.217,-0.378 0.194,-0.349C0.17,-0.32 0.158,-0.286 0.158,-0.246C0.158,-0.206 0.17,-0.172 0.194,-0.143C0.217,-0.114 0.25,-0.1 0.292,-0.1C0.334,-0.1 0.367,-0.114 0.391,-0.143C0.414,-0.172 0.426,-0.206 0.426,-0.246C0.426,-0.271 0.421,-0.294 0.409,-0.317C0.399,-0.34 0.383,-0.358 0.362,-0.372C0.341,-0.385 0.318,-0.392 0.292,-0.392Z" style="fill:#fff;fill-rule:nonzero;"/></g><g transform="matrix(50.8163,0,0,50.8163,636.227,793.583)"><path d="M0.18,-0.229C0.18,-0.19 0.19,-0.159 0.211,-0.134C0.232,-0.109 0.261,-0.097 0.299,-0.097C0.336,-0.097 0.367,-0.11 0.39,-0.137C0.413,-0.164 0.425,-0.196 0.425,-0.235L0.425,-0.493L0.546,-0.493L0.546,0.002L0.437,0.002L0.429,-0.06C0.403,-0.034 0.377,-0.015 0.352,-0.004C0.326,0.008 0.296,0.014 0.262,0.014C0.223,0.014 0.188,0.004 0.157,-0.015C0.126,-0.034 0.102,-0.062 0.085,-0.099C0.067,-0.136 0.058,-0.179 0.058,-0.228L0.058,-0.493L0.18,-0.493L0.18,-0.229Z" style="fill:#fff;fill-rule:nonzero;"/></g><g transform="matrix(50.8163,0,0,50.8163,667.327,793.583)"><path d="M0.243,-0.49L0.379,-0.49L0.379,-0.385L0.242,-0.385L0.242,-0.168C0.242,-0.145 0.248,-0.128 0.259,-0.116C0.27,-0.104 0.286,-0.098 0.306,-0.098C0.324,-0.098 0.344,-0.103 0.365,-0.113L0.399,-0.009C0.38,-0.001 0.363,0.004 0.345,0.007C0.329,0.01 0.309,0.012 0.288,0.012C0.236,0.012 0.195,-0.003 0.166,-0.034C0.136,-0.065 0.121,-0.109 0.121,-0.168L0.121,-0.385L0.029,-0.385L0.029,-0.49L0.121,-0.49L0.121,-0.619L0.243,-0.632L0.243,-0.49Z" style="fill:#fff;fill-rule:nonzero;"/></g></g><g><path d="M-0,339.35L-0,432.972L272.974,432.972L272.974,339.35L-0,339.35Z" style="fill:#fff;"/><rect x="341.559" y="339.35" width="93.622" height="271.385" style="fill:#fff;"/><rect x="341.559" y="-0" width="93.622" height="271.385" style="fill:#fff;"/><rect x="-0" y="500.437" width="93.622" height="272.974" style="fill:#fff;"/><path d="M503.146,773.411L503.146,679.789L341.559,679.789L341.559,773.411L503.146,773.411Z" style="fill:#fff;"/><path d="M24.254,679.789L24.254,773.411L272.974,773.411L272.974,679.789L24.254,679.789Z" style="fill:#fff;"/></g></g></svg>