<?xml version="1.0" encoding="UTF-8" standalone="no"?><!DOCTYPE svg PUBLIC "-//W3C//DTD SVG 1.1//EN" "http://www.w3.org/Graphics/SVG/1.1/DTD/svg11.dtd"><svg width="1040px" height="388px" version="1.1" xmlns="http://www.w3.org/2000/svg" xmlns:xlink="http://www.w3.org/1999/xlink" xml:space="preserve" xmlns:serif="http://www.serif.com/" style="fill-rule:evenodd;clip-rule:evenodd;stroke-linejoin:round;stroke-miterlimit:2;"><g><g><g><path d="M281.788,183.679L281.788,236.995C288.895,227.74 298.952,223.113 311.959,223.113C338.374,223.113 351.582,239.007 351.582,270.795L351.582,324.514L322.619,324.514L322.619,270.997C322.619,264.156 320.909,258.858 317.49,255.102C314.07,251.347 309.478,249.469 303.712,249.469C297.41,249.469 292.147,251.582 287.923,255.807C283.699,260.032 281.587,266.034 281.587,273.813L281.587,324.514L252.624,324.514L252.624,183.679L281.788,183.679Z" style="fill:#fff;fill-rule:nonzero;"/><path d="M447.274,222.107L475.433,222.107L475.433,324.514L447.676,324.514L447.676,309.022C444.726,314.253 440.302,318.143 434.402,320.691C428.502,323.24 422.736,324.514 417.104,324.514C401.952,324.514 389.616,319.752 380.095,310.229C370.575,300.706 365.815,287.897 365.815,271.801C365.815,255.974 370.609,243.366 380.196,233.977C389.783,224.588 401.885,219.894 416.501,219.894C431.385,219.894 441.642,224.454 447.274,233.575L447.274,222.107ZM420.926,245.445C413.417,245.445 407.181,247.826 402.22,252.587C397.259,257.349 394.778,263.754 394.778,271.801C394.778,279.849 397.259,286.22 402.22,290.915C407.181,295.609 413.417,297.957 420.926,297.957C428.703,297.957 435.039,295.408 439.933,290.311C444.827,285.214 447.274,279.38 447.274,272.807C447.274,265.296 444.928,258.858 440.234,253.493C435.541,248.128 429.105,245.445 420.926,245.445Z" style="fill:#fff;fill-rule:nonzero;"/><path d="M562.951,324.514L562.951,268.985C562.951,253.56 556.113,245.848 542.436,245.848C535.865,245.848 530.468,248.228 526.244,252.99C522.02,257.751 519.909,263.485 519.909,270.192L519.909,324.514L491.348,324.514L491.348,222.107L519.909,222.107L519.909,234.782C527.552,224.856 536.536,219.894 549.676,219.894C562.683,219.894 573.008,223.515 580.651,230.758C588.294,238.001 592.116,250.676 592.116,268.784L592.116,324.514L562.951,324.514Z" style="fill:#fff;fill-rule:nonzero;"/><path d="M633.185,340.286C634.152,354.088 642.709,360.989 658.857,360.989C665.896,360.989 671.865,359.367 676.765,356.124C681.665,352.881 684.114,348.222 684.114,342.15C684.114,330.418 675.833,324.552 659.271,324.552C642.433,324.552 629.01,319.894 619.004,310.578C608.998,301.262 603.994,288.736 603.994,273.002C603.994,256.578 609.377,243.777 620.143,234.598C630.908,225.42 643.951,220.831 659.271,220.831C670.036,220.831 678.042,222.694 683.286,226.421L694.466,211.929L715.997,228.491L702.954,244.018C709.993,252.575 713.512,261.685 713.512,271.346C713.512,289.012 706.197,301.641 691.567,309.232C706.749,315.857 714.34,326.83 714.34,342.15C714.34,356.504 708.889,367.614 697.985,375.481C687.082,383.348 674.039,387.282 658.857,387.282C641.191,387.282 627.803,383.176 618.693,374.964C609.584,366.751 605.168,355.192 605.444,340.286L633.185,340.286ZM659.271,247.331C651.404,247.331 645.021,249.608 640.121,254.163C635.221,258.717 632.771,264.997 632.771,273.002C632.771,280.317 635.256,286.217 640.224,290.703C645.193,295.189 651.542,297.432 659.271,297.432C666.448,297.432 672.521,295.292 677.489,291.014C682.458,286.735 684.942,280.731 684.942,273.002C684.942,265.825 682.493,259.752 677.593,254.784C672.693,249.815 666.586,247.331 659.271,247.331Z" style="fill:#fff;"/><path d="M818.665,310.129C808.876,319.719 795.601,324.514 778.84,324.514C762.079,324.514 748.838,319.719 739.116,310.129C729.395,300.538 724.534,287.763 724.534,271.801C724.534,256.645 729.529,244.171 739.519,234.38C749.508,224.588 762.615,219.692 778.84,219.692C795.199,219.692 808.373,224.588 818.363,234.38C828.353,244.171 833.348,256.645 833.348,271.801C833.348,287.763 828.453,300.538 818.665,310.129ZM760.135,290.915C764.292,296.146 770.527,298.761 778.84,298.761C787.154,298.761 793.422,296.179 797.646,291.015C801.87,285.851 803.982,279.447 803.982,271.801C803.982,264.827 801.837,258.724 797.546,253.493C793.255,248.262 787.02,245.646 778.84,245.646C770.795,245.646 764.627,248.262 760.336,253.493C756.045,258.724 753.9,264.827 753.9,271.801C753.9,279.313 755.978,285.684 760.135,290.915Z" style="fill:#fff;fill-rule:nonzero;"/><path d="M876.745,222.107L876.745,275.624C876.745,291.049 883.583,298.761 897.261,298.761C903.831,298.761 909.228,296.38 913.452,291.619C917.676,286.857 919.788,281.123 919.788,274.417L919.788,222.107L948.349,222.107L948.349,324.514L919.788,324.514L919.788,309.425C912.279,319.484 903.295,324.514 890.02,324.514C883.852,324.514 878.388,323.776 873.627,322.301C868.867,320.825 864.442,318.378 860.353,314.957C856.263,311.537 853.112,306.507 850.899,299.868C848.687,293.228 847.581,285.214 847.581,275.825L847.581,222.107L876.745,222.107Z" style="fill:#fff;fill-rule:nonzero;"/><path d="M1009.25,198.1L1009.25,222.107L1034.39,222.107L1034.39,246.25L1009.04,246.25L1009.04,285.015C1009.04,293.868 1012.8,298.294 1020.31,298.294C1025.13,298.294 1029.16,297.489 1032.38,295.88L1039.01,320.023C1033.52,322.303 1026.54,323.778 1018.1,324.449C1006.43,324.985 997.21,322.202 990.439,316.099C983.667,309.997 980.281,299.635 980.281,285.015L980.281,246.25L962.582,246.25L962.582,222.107L980.281,222.107L980.281,198.1L1009.25,198.1Z" style="fill:#fff;fill-rule:nonzero;"/></g><g><path d="M328.452,72.214L328.452,96.759L353.593,96.759L353.593,120.902L328.25,120.902L328.25,159.129C328.25,167.982 332.005,172.408 339.514,172.408C344.341,172.408 348.364,171.603 351.582,169.994L358.219,194.137C352.722,196.417 345.749,197.892 337.301,198.563C325.636,199.1 316.417,196.316 309.646,190.213C302.874,184.111 299.488,173.749 299.488,159.129L299.488,120.902L281.788,120.902L281.788,96.759L299.488,96.759L299.488,72.214L328.452,72.214Z" style="fill:#fff;fill-rule:nonzero;"/><path d="M447.274,96.221L475.433,96.221L475.433,198.628L447.676,198.628L447.676,183.136C444.726,188.367 440.302,192.257 434.402,194.805C428.502,197.354 422.736,198.628 417.104,198.628C401.952,198.628 389.616,193.866 380.095,184.343C370.575,174.82 365.815,162.011 365.815,145.915C365.815,130.088 370.609,117.48 380.196,108.091C389.783,98.702 401.885,94.008 416.501,94.008C431.385,94.008 441.642,98.568 447.274,107.689L447.274,96.221ZM420.926,119.559C413.417,119.559 407.181,121.94 402.22,126.702C397.259,131.463 394.778,137.868 394.778,145.915C394.778,153.963 397.259,160.334 402.22,165.029C407.181,169.723 413.417,172.071 420.926,172.071C428.703,172.071 435.039,169.522 439.933,164.425C444.827,159.328 447.274,153.494 447.274,146.921C447.274,139.41 444.928,132.972 440.234,127.607C435.541,122.242 429.105,119.559 420.926,119.559Z" style="fill:#fff;fill-rule:nonzero;"/><rect x="491.348" y="72.214" width="26.147" height="42.678" style="fill:#fff;fill-rule:nonzero;"/><path d="M596.675,123.985C589.702,119.291 581.858,116.944 573.142,116.944C568.583,116.944 565.064,117.681 562.583,119.157C560.102,120.632 558.862,122.577 558.862,124.991C558.862,130.625 563.756,133.509 573.545,133.643C579.311,133.777 584.372,134.28 588.73,135.152C593.088,136.023 597.58,137.499 602.206,139.578C606.832,141.657 610.419,144.909 612.967,149.336C615.515,153.762 616.788,159.194 616.788,165.632C616.788,174.485 613.202,182.197 606.028,188.77C598.854,195.342 587.959,198.628 573.344,198.628C555.778,198.628 540.223,192.995 526.68,181.728L539.151,161.609C549.342,169.656 561.141,173.68 574.55,173.68C578.707,173.68 582.126,172.909 584.808,171.366C587.49,169.824 588.764,167.913 588.63,165.632C588.63,160.267 582.998,157.316 571.734,156.78C566.773,156.646 561.979,155.975 557.353,154.768C552.727,153.561 548.302,151.784 544.079,149.436C539.855,147.089 536.469,143.803 533.921,139.578C531.374,135.353 530.1,130.491 530.1,124.991C530.1,114.663 534.257,106.783 542.57,101.351C550.884,95.919 561.007,93.203 572.941,93.203C588.362,93.203 601.033,97.495 610.956,106.079L596.675,123.985Z" style="fill:#fff;fill-rule:nonzero;"/></g></g><g><path d="M0,142.574L0,181.783L114.32,181.783L114.32,142.574L0,142.574Z" style="fill:#fff;"/><rect x="142.574" y="142.574" width="39.208" height="114.32" style="fill:#fff;"/><rect x="142.574" y="0" width="39.208" height="114.32" style="fill:#fff;"/><rect x="75.112" y="210.037" width="39.208" height="114.32" style="fill:#fff;"/><rect x="0" y="277.499" width="46.858" height="46.858" style="fill:#fff;"/><path d="M210.246,324.357L210.246,285.149L142.574,285.149L142.574,324.357L210.246,324.357Z" style="fill:#fff;"/><path d="M104.163,249.245L104.163,210.037L0,210.037L0,249.245L104.163,249.245Z" style="fill:#fff;"/></g></g></svg>