<?xml version="1.0" encoding="UTF-8" standalone="no"?><!DOCTYPE svg PUBLIC "-//W3C//DTD SVG 1.1//EN" "http://www.w3.org/Graphics/SVG/1.1/DTD/svg11.dtd"><svg width="65px" height="31px" version="1.1" xmlns="http://www.w3.org/2000/svg" xmlns:xlink="http://www.w3.org/1999/xlink" xml:space="preserve" xmlns:serif="http://www.serif.com/" style="fill-rule:evenodd;clip-rule:evenodd;stroke-linejoin:round;stroke-miterlimit:2;"><path d="M64.424,15.294C64.424,23.736 57.571,30.589 49.13,30.589L15.295,30.589C6.853,30.589 0,23.736 0,15.294C0,6.853 6.853,0 15.295,0L49.13,0C57.571,0 64.424,6.853 64.424,15.294ZM35.151,10.457C35.498,10.761 35.918,10.913 36.409,10.913C36.901,10.913 37.32,10.761 37.668,10.457C38.015,10.154 38.188,9.72 38.188,9.156C38.188,8.592 38.015,8.158 37.668,7.854C37.32,7.551 36.901,7.399 36.409,7.399C35.918,7.399 35.498,7.551 35.151,7.854C34.804,8.158 34.631,8.592 34.631,9.156C34.631,9.72 34.804,10.154 35.151,10.457ZM37.971,11.976L34.848,11.976L34.848,22.713L37.971,22.713L37.971,11.976ZM48.34,22.713L51.485,22.713L51.485,17.03C51.485,15.078 51.073,13.711 50.249,12.93C49.424,12.149 48.311,11.759 46.908,11.759C45.491,11.759 44.37,12.294 43.546,13.364L43.437,11.997L40.618,11.997L40.618,22.713L43.698,22.713L43.698,17.182C43.698,16.459 43.926,15.84 44.381,15.327C44.837,14.814 45.419,14.557 46.127,14.557C47.602,14.557 48.34,15.388 48.34,17.052L48.34,22.713ZM19.078,11.976L15.976,11.976L15.976,23.32C15.976,24.318 15.651,24.817 15,24.817C14.667,24.817 14.277,24.694 13.829,24.448L12.939,26.726C13.792,27.232 14.667,27.485 15.564,27.485C16.605,27.485 17.451,27.127 18.102,26.411C18.753,25.696 19.078,24.636 19.078,23.234L19.078,11.976ZM31.247,21.509C32.302,20.475 32.83,19.098 32.83,17.377C32.83,15.743 32.292,14.398 31.214,13.342C30.137,12.287 28.716,11.759 26.952,11.759C25.202,11.759 23.789,12.287 22.711,13.342C21.634,14.398 21.095,15.743 21.095,17.377C21.095,19.098 21.619,20.475 22.668,21.509C23.716,22.543 25.144,23.06 26.952,23.06C28.76,23.06 30.191,22.543 31.247,21.509ZM24.935,19.438C24.486,18.874 24.262,18.187 24.262,17.377C24.262,16.625 24.494,15.967 24.956,15.403C25.419,14.839 26.084,14.557 26.952,14.557C27.834,14.557 28.506,14.839 28.969,15.403C29.432,15.967 29.663,16.625 29.663,17.377C29.663,18.201 29.436,18.892 28.98,19.448C28.525,20.005 27.848,20.284 26.952,20.284C26.055,20.284 25.383,20.002 24.935,19.438ZM16.301,10.457C16.648,10.761 17.061,10.913 17.538,10.913C18.029,10.913 18.449,10.761 18.796,10.457C19.143,10.154 19.316,9.72 19.316,9.156C19.316,8.592 19.143,8.158 18.796,7.854C18.449,7.551 18.029,7.399 17.538,7.399C17.061,7.399 16.648,7.551 16.301,7.854C15.954,8.158 15.781,8.592 15.781,9.156C15.781,9.72 15.954,10.154 16.301,10.457Z" style="fill:#fff;"/></svg>