<?xml version="1.0" encoding="UTF-8" standalone="no"?><!DOCTYPE svg PUBLIC "-//W3C//DTD SVG 1.1//EN" "http://www.w3.org/Graphics/SVG/1.1/DTD/svg11.dtd"><svg width="84px" height="31px" version="1.1" xmlns="http://www.w3.org/2000/svg" xmlns:xlink="http://www.w3.org/1999/xlink" xml:space="preserve" xmlns:serif="http://www.serif.com/" style="fill-rule:evenodd;clip-rule:evenodd;stroke-linejoin:round;stroke-miterlimit:2;"><path d="M15.295,30.589C6.853,30.589 0,23.736 0,15.295C0,6.853 6.853,0 15.295,0L68.638,0C77.079,0 83.933,6.853 83.933,15.295C83.933,23.736 77.079,30.589 68.638,30.589L15.295,30.589ZM45.491,10.522C45.838,10.826 46.258,10.978 46.749,10.978C47.241,10.978 47.661,10.826 48.008,10.522C48.355,10.219 48.528,9.785 48.528,9.221C48.528,8.657 48.355,8.223 48.008,7.919C47.661,7.616 47.241,7.464 46.749,7.464C46.258,7.464 45.838,7.616 45.491,7.919C45.144,8.223 44.971,8.657 44.971,9.221C44.971,9.785 45.144,10.219 45.491,10.522ZM16.685,12.041L13.561,12.041L13.561,22.778L16.685,22.778L16.685,12.041ZM37.466,19.524L36.207,15.989L34.667,12.062L31.153,12.062L35.752,22.843L39.179,22.843L43.778,12.062L40.264,12.062L38.724,15.989L37.466,19.524ZM55.209,9.134L52.086,9.481L52.086,12.128L50.177,12.128L50.177,14.731L52.086,14.731L52.086,18.852C52.086,20.428 52.451,21.545 53.181,22.203C53.911,22.861 54.905,23.161 56.164,23.103C57.075,23.031 57.827,22.872 58.42,22.626L57.704,20.023C57.357,20.197 56.923,20.284 56.402,20.284C55.592,20.284 55.187,19.806 55.187,18.852L55.187,14.731L57.921,14.731L57.921,12.128L55.209,12.128L55.209,9.134ZM62.606,18.505L70.48,18.505C70.552,18.071 70.588,17.587 70.588,17.052C70.588,15.374 70.093,14.087 69.103,13.19C68.112,12.294 66.785,11.846 65.122,11.846C63.401,11.846 62.024,12.359 60.99,13.386C59.956,14.412 59.439,15.743 59.439,17.377C59.439,19.112 59.963,20.504 61.012,21.553C62.06,22.601 63.539,23.125 65.448,23.125C67.443,23.125 68.976,22.597 70.046,21.542L68.289,19.589C67.653,20.153 66.727,20.435 65.513,20.435C64.674,20.435 64.001,20.251 63.495,19.882C62.989,19.514 62.693,19.054 62.606,18.505ZM67.682,16.227L62.606,16.227C62.765,15.692 63.065,15.273 63.506,14.969C63.947,14.665 64.486,14.514 65.122,14.514C65.816,14.514 66.409,14.662 66.901,14.958C67.393,15.255 67.653,15.678 67.682,16.227ZM27.054,22.778L30.199,22.778L30.199,17.095C30.199,15.143 29.787,13.776 28.962,12.995C28.138,12.214 27.025,11.824 25.622,11.824C24.205,11.824 23.084,12.359 22.26,13.429L22.151,12.062L19.331,12.062L19.331,22.778L22.412,22.778L22.412,17.247C22.412,16.524 22.639,15.905 23.095,15.392C23.55,14.879 24.132,14.622 24.841,14.622C26.316,14.622 27.054,15.454 27.054,17.117L27.054,22.778ZM48.311,12.041L45.188,12.041L45.188,22.778L48.311,22.778L48.311,12.041ZM13.865,10.522C14.212,10.826 14.632,10.978 15.123,10.978C15.615,10.978 16.034,10.826 16.381,10.522C16.728,10.219 16.902,9.785 16.902,9.221C16.902,8.657 16.728,8.223 16.381,7.919C16.034,7.616 15.615,7.464 15.123,7.464C14.632,7.464 14.212,7.616 13.865,7.919C13.518,8.223 13.345,8.657 13.345,9.221C13.345,9.785 13.518,10.219 13.865,10.522Z" style="fill:#fff;"/></svg>