<?xml version="1.0" encoding="UTF-8" standalone="no"?><!DOCTYPE svg PUBLIC "-//W3C//DTD SVG 1.1//EN" "http://www.w3.org/Graphics/SVG/1.1/DTD/svg11.dtd"><svg width="95px" height="31px" version="1.1" xmlns="http://www.w3.org/2000/svg" xmlns:xlink="http://www.w3.org/1999/xlink" xml:space="preserve" xmlns:serif="http://www.serif.com/" style="fill-rule:evenodd;clip-rule:evenodd;stroke-linejoin:round;stroke-miterlimit:2;"><path d="M78.933,0C87.375,0 94.228,6.853 94.228,15.295C94.228,23.736 87.375,30.589 78.933,30.589L15.295,30.589C6.853,30.589 0,23.736 0,15.295C0,6.853 6.853,0 15.295,0L78.933,0ZM48.852,11.117C49.933,12.146 50.473,13.539 50.473,15.295C50.473,17.051 49.933,18.443 48.852,19.472C47.771,20.501 46.348,21.015 44.581,21.015C42.815,21.015 41.391,20.501 40.31,19.472C39.229,18.443 38.689,17.051 38.689,15.295C38.689,13.539 39.229,12.146 40.31,11.117C41.391,10.089 42.815,9.574 44.581,9.574C46.348,9.574 47.771,10.089 48.852,11.117ZM29.571,16.214C29.643,17.856 30.47,18.677 32.049,18.677C32.86,18.677 33.486,18.451 33.927,17.999C34.369,17.547 34.59,16.9 34.59,16.058L34.59,12.053L31.566,12.053L31.566,9.839L37.021,9.839L37.021,16.074C37.021,17.539 36.59,18.724 35.728,19.628C34.865,20.532 33.649,20.984 32.08,20.984C28.88,20.984 27.259,19.394 27.217,16.214L29.571,16.214ZM52.281,20.75L52.281,9.839L54.697,9.839L54.697,20.75L52.281,20.75ZM64.72,16.931L64.564,13.502L64.564,9.839L67.011,9.839L67.011,20.75L64.922,20.75L59.498,13.767L59.591,17.352L59.591,20.75L57.129,20.75L57.129,9.839L59.217,9.839L64.72,16.931ZM48.088,15.295C48.088,14.276 47.763,13.432 47.114,12.762C46.464,12.092 45.62,11.756 44.581,11.756C43.552,11.756 42.711,12.094 42.056,12.77C41.401,13.445 41.074,14.287 41.074,15.295C41.074,16.323 41.401,17.168 42.056,17.828C42.711,18.487 43.552,18.817 44.581,18.817C45.631,18.817 46.477,18.487 47.122,17.828C47.766,17.168 48.088,16.323 48.088,15.295Z" style="fill:#fff;"/></svg>