<?xml version="1.0" encoding="UTF-8" standalone="no"?><!DOCTYPE svg PUBLIC "-//W3C//DTD SVG 1.1//EN" "http://www.w3.org/Graphics/SVG/1.1/DTD/svg11.dtd"><svg width="157px" height="31px" version="1.1" xmlns="http://www.w3.org/2000/svg" xmlns:xlink="http://www.w3.org/1999/xlink" xml:space="preserve" xmlns:serif="http://www.serif.com/" style="fill-rule:evenodd;clip-rule:evenodd;stroke-linejoin:round;stroke-miterlimit:2;"><path d="M156.006,15.294C156.006,23.736 149.153,30.589 140.711,30.589L15.294,30.589C6.853,30.589 0,23.736 0,15.294C0,6.853 6.853,0 15.294,0L140.711,0C149.153,0 156.006,6.853 156.006,15.294ZM61.55,18.44L69.424,18.44C69.496,18.006 69.532,17.521 69.532,16.986C69.532,15.309 69.037,14.022 68.046,13.125C67.056,12.229 65.729,11.78 64.066,11.78C62.345,11.78 60.968,12.294 59.934,13.321C58.9,14.347 58.383,15.678 58.383,17.312C58.383,19.047 58.907,20.439 59.956,21.487C61.004,22.536 62.483,23.06 64.391,23.06C66.387,23.06 67.92,22.532 68.99,21.477L67.233,19.524C66.597,20.088 65.671,20.37 64.457,20.37C63.618,20.37 62.945,20.186 62.439,19.817C61.933,19.448 61.637,18.989 61.55,18.44ZM66.626,16.162L61.55,16.162C61.709,15.627 62.009,15.208 62.45,14.904C62.891,14.6 63.43,14.449 64.066,14.449C64.76,14.449 65.353,14.597 65.845,14.893C66.336,15.19 66.597,15.613 66.626,16.162ZM21.29,18.44L29.164,18.44C29.237,18.006 29.273,17.521 29.273,16.986C29.273,15.309 28.778,14.022 27.787,13.125C26.796,12.229 25.47,11.78 23.807,11.78C22.086,11.78 20.708,12.294 19.674,13.321C18.64,14.347 18.123,15.678 18.123,17.312C18.123,19.047 18.648,20.439 19.696,21.487C20.745,22.536 22.223,23.06 24.132,23.06C26.128,23.06 27.66,22.532 28.731,21.477L26.974,19.524C26.337,20.088 25.412,20.37 24.197,20.37C23.358,20.37 22.686,20.186 22.18,19.817C21.674,19.448 21.377,18.989 21.29,18.44ZM26.366,16.162L21.29,16.162C21.449,15.627 21.75,15.208 22.191,14.904C22.632,14.6 23.17,14.449 23.807,14.449C24.501,14.449 25.094,14.597 25.585,14.893C26.077,15.19 26.337,15.613 26.366,16.162ZM39.533,11.997L39.425,13.234C38.817,12.25 37.711,11.759 36.106,11.759C34.529,11.759 33.224,12.265 32.19,13.277C31.156,14.289 30.639,15.649 30.639,17.355C30.639,19.091 31.153,20.472 32.18,21.498C33.206,22.525 34.537,23.038 36.171,23.038C36.778,23.038 37.4,22.901 38.036,22.626C38.673,22.351 39.15,21.932 39.468,21.368L39.641,22.713L42.461,22.713L42.461,11.997L39.533,11.997ZM36.583,14.514C37.465,14.514 38.159,14.803 38.665,15.381C39.171,15.96 39.425,16.654 39.425,17.464C39.425,18.172 39.161,18.801 38.633,19.351C38.105,19.9 37.422,20.175 36.583,20.175C35.773,20.175 35.101,19.922 34.566,19.416C34.031,18.91 33.763,18.223 33.763,17.355C33.763,16.488 34.031,15.797 34.566,15.284C35.101,14.77 35.773,14.514 36.583,14.514ZM56.344,7.551L53.199,7.551L53.199,13.299C52.36,12.287 51.239,11.78 49.836,11.78C48.246,11.78 46.959,12.283 45.975,13.288C44.992,14.293 44.5,15.649 44.5,17.355C44.5,19.018 44.992,20.378 45.975,21.433C46.959,22.489 48.231,23.017 49.793,23.017C50.545,23.017 51.207,22.901 51.778,22.67C52.349,22.438 52.873,21.997 53.35,21.346L53.546,22.713L56.344,22.713L56.344,7.551ZM50.27,14.6C51.051,14.6 51.727,14.843 52.298,15.327C52.87,15.811 53.155,16.488 53.155,17.355C53.155,18.295 52.873,18.989 52.309,19.438C51.745,19.886 51.066,20.11 50.27,20.11C49.46,20.11 48.821,19.85 48.351,19.329C47.881,18.809 47.646,18.151 47.646,17.355C47.646,16.531 47.881,15.866 48.351,15.36C48.821,14.853 49.46,14.6 50.27,14.6ZM74.413,12.019L71.506,12.019L71.506,22.713L74.63,22.713L74.63,17.138C74.63,16.372 74.868,15.768 75.346,15.327C75.823,14.886 76.416,14.665 77.124,14.665C77.775,14.665 78.346,14.846 78.838,15.208L80.14,12.735C79.402,12.084 78.527,11.759 77.515,11.759C76.271,11.759 75.317,12.236 74.652,13.19L74.413,12.019ZM84.5,7.551L81.354,7.551L81.354,22.713L84.152,22.713L84.348,21.346C84.796,21.997 85.309,22.442 85.888,22.68C86.466,22.919 87.139,23.038 87.905,23.038C89.467,23.038 90.739,22.511 91.723,21.455C92.706,20.399 93.198,19.033 93.198,17.355C93.198,15.634 92.706,14.271 91.723,13.266C90.739,12.261 89.452,11.759 87.862,11.759C86.459,11.759 85.338,12.272 84.5,13.299L84.5,7.551ZM87.428,14.6C88.238,14.6 88.878,14.853 89.348,15.36C89.818,15.866 90.053,16.531 90.053,17.355C90.053,18.151 89.818,18.809 89.348,19.329C88.878,19.85 88.238,20.11 87.428,20.11C86.633,20.11 85.953,19.886 85.389,19.438C84.825,18.989 84.543,18.295 84.543,17.355C84.543,16.488 84.829,15.811 85.4,15.327C85.971,14.843 86.647,14.6 87.428,14.6ZM104.759,21.509C105.815,20.475 106.343,19.098 106.343,17.377C106.343,15.743 105.804,14.398 104.727,13.342C103.65,12.287 102.229,11.759 100.464,11.759C98.715,11.759 97.301,12.287 96.224,13.342C95.146,14.398 94.608,15.743 94.608,17.377C94.608,19.098 95.132,20.475 96.18,21.509C97.229,22.543 98.657,23.06 100.464,23.06C102.272,23.06 103.704,22.543 104.759,21.509ZM98.447,19.438C97.999,18.874 97.775,18.187 97.775,17.377C97.775,16.625 98.006,15.967 98.469,15.403C98.932,14.839 99.597,14.557 100.464,14.557C101.347,14.557 102.019,14.839 102.482,15.403C102.945,15.967 103.176,16.625 103.176,17.377C103.176,18.201 102.948,18.892 102.493,19.448C102.037,20.005 101.361,20.284 100.464,20.284C99.568,20.284 98.895,20.002 98.447,19.438ZM143.067,7.551L139.921,7.551L139.921,13.299C139.083,12.287 137.962,11.78 136.559,11.78C134.968,11.78 133.681,12.283 132.698,13.288C131.715,14.293 131.223,15.649 131.223,17.355C131.223,19.018 131.715,20.378 132.698,21.433C133.681,22.489 134.954,23.017 136.516,23.017C137.268,23.017 137.929,22.901 138.501,22.67C139.072,22.438 139.596,21.997 140.073,21.346L140.268,22.713L143.067,22.713L143.067,7.551ZM136.993,14.6C137.774,14.6 138.45,14.843 139.021,15.327C139.592,15.811 139.878,16.488 139.878,17.355C139.878,18.295 139.596,18.989 139.032,19.438C138.468,19.886 137.788,20.11 136.993,20.11C136.183,20.11 135.543,19.85 135.073,19.329C134.603,18.809 134.368,18.151 134.368,17.355C134.368,16.531 134.603,15.866 135.073,15.36C135.543,14.853 136.183,14.6 136.993,14.6ZM116.646,11.997L116.538,13.234C115.931,12.25 114.824,11.759 113.219,11.759C111.643,11.759 110.338,12.265 109.304,13.277C108.27,14.289 107.753,15.649 107.753,17.355C107.753,19.091 108.266,20.472 109.293,21.498C110.32,22.525 111.65,23.038 113.284,23.038C113.892,23.038 114.513,22.901 115.15,22.626C115.786,22.351 116.263,21.932 116.581,21.368L116.755,22.713L119.575,22.713L119.575,11.997L116.646,11.997ZM113.696,14.514C114.578,14.514 115.273,14.803 115.779,15.381C116.285,15.96 116.538,16.654 116.538,17.464C116.538,18.172 116.274,18.801 115.746,19.351C115.218,19.9 114.535,20.175 113.696,20.175C112.886,20.175 112.214,19.922 111.679,19.416C111.144,18.91 110.876,18.223 110.876,17.355C110.876,16.488 111.144,15.797 111.679,15.284C112.214,14.77 112.886,14.514 113.696,14.514ZM125.128,12.019L122.221,12.019L122.221,22.713L125.345,22.713L125.345,17.138C125.345,16.372 125.583,15.768 126.06,15.327C126.538,14.886 127.131,14.665 127.839,14.665C128.49,14.665 129.061,14.846 129.553,15.208L130.854,12.735C130.117,12.084 129.242,11.759 128.23,11.759C126.986,11.759 126.032,12.236 125.366,13.19L125.128,12.019ZM16.041,7.551L12.939,7.551L12.939,22.713L16.041,22.713L16.041,7.551Z" style="fill:#fff;"/></svg>