<?xml version="1.0" encoding="UTF-8" standalone="no"?><!DOCTYPE svg PUBLIC "-//W3C//DTD SVG 1.1//EN" "http://www.w3.org/Graphics/SVG/1.1/DTD/svg11.dtd"><svg width="126px" height="31px" version="1.1" xmlns="http://www.w3.org/2000/svg" xmlns:xlink="http://www.w3.org/1999/xlink" xml:space="preserve" xmlns:serif="http://www.serif.com/" style="fill-rule:evenodd;clip-rule:evenodd;stroke-linejoin:round;stroke-miterlimit:2;"><path d="M15.295,30.589C6.853,30.589 0,23.736 0,15.295C0,6.853 6.853,0 15.295,0L110.135,0C118.577,0 125.43,6.853 125.43,15.295C125.43,23.736 118.577,30.589 110.135,30.589L15.295,30.589ZM20.048,22.756L23.128,22.756L23.128,17.008C23.128,16.357 23.283,15.815 23.594,15.381C23.905,14.947 24.357,14.731 24.95,14.731C25.557,14.731 25.98,14.919 26.219,15.295C26.458,15.67 26.577,16.227 26.577,16.965L26.577,22.756L29.722,22.756L29.722,16.9C29.722,13.501 28.298,11.802 25.449,11.802C24.654,11.802 23.985,11.954 23.442,12.258C22.9,12.561 22.39,13.075 21.913,13.798C21.32,12.467 20.272,11.802 18.768,11.802C17.466,11.802 16.527,12.287 15.948,13.255L15.731,12.041L12.998,12.041L12.998,22.756L16.122,22.756L16.122,17.03C16.122,16.379 16.295,15.822 16.642,15.36C16.989,14.897 17.459,14.665 18.052,14.665C18.688,14.665 19.18,14.875 19.527,15.295C19.874,15.714 20.048,16.285 20.048,17.008L20.048,22.756ZM41.739,21.553C42.795,20.519 43.323,19.141 43.323,17.42C43.323,15.786 42.784,14.441 41.707,13.386C40.629,12.33 39.209,11.802 37.444,11.802C35.695,11.802 34.281,12.33 33.204,13.386C32.126,14.441 31.588,15.786 31.588,17.42C31.588,19.141 32.112,20.519 33.16,21.553C34.209,22.586 35.637,23.103 37.444,23.103C39.252,23.103 40.684,22.586 41.739,21.553ZM35.427,19.481C34.979,18.917 34.755,18.23 34.755,17.42C34.755,16.668 34.986,16.01 35.449,15.446C35.912,14.882 36.577,14.6 37.444,14.6C38.326,14.6 38.999,14.882 39.462,15.446C39.924,16.01 40.156,16.668 40.156,17.42C40.156,18.245 39.928,18.935 39.473,19.492C39.017,20.049 38.341,20.327 37.444,20.327C36.548,20.327 35.875,20.045 35.427,19.481ZM65.21,15.099L66.75,13.169C65.68,12.243 64.313,11.78 62.65,11.78C61.363,11.78 60.271,12.073 59.375,12.659C58.478,13.245 58.03,14.094 58.03,15.208C58.03,15.801 58.167,16.325 58.442,16.78C58.717,17.236 59.082,17.59 59.537,17.843C59.993,18.096 60.47,18.288 60.969,18.418C61.468,18.548 61.985,18.621 62.52,18.635C63.735,18.693 64.342,19.011 64.342,19.589C64.356,19.835 64.219,20.041 63.93,20.208C63.641,20.374 63.272,20.457 62.823,20.457C61.377,20.457 60.105,20.023 59.006,19.156L57.661,21.325C59.121,22.539 60.799,23.147 62.693,23.147C64.27,23.147 65.445,22.793 66.218,22.084C66.992,21.375 67.379,20.544 67.379,19.589C67.379,18.895 67.241,18.31 66.967,17.832C66.692,17.355 66.305,17.005 65.806,16.78C65.307,16.556 64.823,16.397 64.353,16.303C63.883,16.209 63.337,16.155 62.715,16.14C61.659,16.126 61.132,15.815 61.132,15.208C61.132,14.947 61.265,14.738 61.533,14.579C61.8,14.42 62.18,14.34 62.672,14.34C63.612,14.34 64.458,14.593 65.21,15.099ZM69.548,10.501C69.895,10.804 70.314,10.956 70.806,10.956C71.298,10.956 71.717,10.804 72.064,10.501C72.411,10.197 72.585,9.763 72.585,9.199C72.585,8.635 72.411,8.201 72.064,7.898C71.717,7.594 71.298,7.442 70.806,7.442C70.314,7.442 69.895,7.594 69.548,7.898C69.201,8.201 69.027,8.635 69.027,9.199C69.027,9.763 69.201,10.197 69.548,10.501ZM72.368,12.019L69.244,12.019L69.244,22.756L72.368,22.756L72.368,12.019ZM54.863,21.553C55.918,20.519 56.446,19.141 56.446,17.42C56.446,15.786 55.907,14.441 54.83,13.386C53.753,12.33 52.332,11.802 50.568,11.802C48.818,11.802 47.404,12.33 46.327,13.386C45.25,14.441 44.711,15.786 44.711,17.42C44.711,19.141 45.235,20.519 46.284,21.553C47.332,22.586 48.76,23.103 50.568,23.103C52.375,23.103 53.807,22.586 54.863,21.553ZM48.55,19.481C48.102,18.917 47.878,18.23 47.878,17.42C47.878,16.668 48.109,16.01 48.572,15.446C49.035,14.882 49.7,14.6 50.568,14.6C51.45,14.6 52.122,14.882 52.585,15.446C53.048,16.01 53.279,16.668 53.279,17.42C53.279,18.245 53.051,18.935 52.596,19.492C52.14,20.049 51.464,20.327 50.568,20.327C49.671,20.327 48.999,20.045 48.55,19.481ZM84.428,21.39L82.454,19.351C82.208,19.597 81.879,19.792 81.467,19.936C81.055,20.081 80.661,20.153 80.285,20.153C79.519,20.153 78.868,19.911 78.333,19.427C77.798,18.942 77.53,18.288 77.53,17.464C77.53,16.596 77.798,15.913 78.333,15.414C78.868,14.915 79.54,14.665 80.35,14.665C81.131,14.665 81.804,14.875 82.368,15.295L84.103,13.321C83.163,12.308 81.869,11.802 80.22,11.802C78.586,11.802 77.205,12.312 76.077,13.331C74.949,14.351 74.385,15.728 74.385,17.464C74.385,19.3 74.942,20.699 76.055,21.661C77.169,22.623 78.564,23.103 80.242,23.103C81.948,23.103 83.344,22.532 84.428,21.39ZM95.686,19.503L94.428,15.967L92.888,12.041L89.374,12.041L93.972,22.821L97.4,22.821L101.998,12.041L98.484,12.041L96.944,15.967L95.686,19.503ZM112.432,21.39L110.458,19.351C110.212,19.597 109.883,19.792 109.471,19.936C109.059,20.081 108.665,20.153 108.289,20.153C107.522,20.153 106.872,19.911 106.337,19.427C105.802,18.942 105.534,18.288 105.534,17.464C105.534,16.596 105.802,15.913 106.337,15.414C106.872,14.915 107.544,14.665 108.354,14.665C109.135,14.665 109.807,14.875 110.371,15.295L112.107,13.321C111.167,12.308 109.872,11.802 108.224,11.802C106.59,11.802 105.209,12.312 104.081,13.331C102.953,14.351 102.389,15.728 102.389,17.464C102.389,19.3 102.946,20.699 104.059,21.661C105.173,22.623 106.568,23.103 108.246,23.103C109.952,23.103 111.347,22.532 112.432,21.39Z" style="fill:#fff;"/></svg>