<?xml version="1.0" encoding="UTF-8" standalone="no"?><!DOCTYPE svg PUBLIC "-//W3C//DTD SVG 1.1//EN" "http://www.w3.org/Graphics/SVG/1.1/DTD/svg11.dtd"><svg width="1108px" height="565px" version="1.1" xmlns="http://www.w3.org/2000/svg" xmlns:xlink="http://www.w3.org/1999/xlink" xml:space="preserve" xmlns:serif="http://www.serif.com/" style="fill-rule:evenodd;clip-rule:evenodd;stroke-linejoin:round;stroke-miterlimit:2;"><g><path d="M527.007,345.997C514.561,337.617 500.559,333.428 485.001,333.428C476.864,333.428 470.581,334.744 466.153,337.378C461.725,340.012 459.511,343.483 459.511,347.793C459.511,357.848 468.247,362.996 485.719,363.235C496.011,363.475 505.047,364.372 512.826,365.929C520.604,367.485 528.623,370.119 536.88,373.829C545.138,377.54 551.54,383.346 556.088,391.247C560.635,399.148 562.909,408.844 562.909,420.336C562.909,436.138 556.507,449.905 543.701,461.636C530.896,473.368 511.449,479.233 485.36,479.233C454.006,479.233 426.242,469.178 402.067,449.067L424.327,413.154C442.517,427.519 463.58,434.702 487.515,434.702C494.934,434.702 501.038,433.325 505.825,430.572C510.612,427.818 512.885,424.407 512.646,420.336C512.646,410.76 502.593,405.493 482.488,404.535C473.632,404.295 465.076,403.098 456.818,400.944C448.561,398.789 440.662,395.617 433.123,391.427C425.583,387.237 419.54,381.371 414.992,373.829C410.445,366.288 408.171,357.609 408.171,347.793C408.171,329.358 415.591,315.292 430.43,305.595C445.27,295.899 463.34,291.051 484.642,291.051C512.167,291.051 534.786,298.712 552.497,314.035L527.007,345.997Z" style="fill:#fff;fill-rule:nonzero;"/><path d="M710.467,472.769L710.467,377.6C710.467,365.629 707.595,356.172 701.85,349.229C696.106,342.286 687.968,338.815 677.437,338.815C667.624,338.815 659.845,342.645 654.101,350.307C648.356,357.968 645.484,367.186 645.484,377.959L645.484,472.769L593.785,472.769L593.785,295.36L639.022,295.36L642.612,315.471C652.186,299.43 667.743,291.41 689.285,291.41C714.177,291.41 731.53,302.423 741.343,324.449C749.241,312.479 757.678,303.979 766.654,298.951C775.629,293.924 786.699,291.41 799.863,291.41C847.015,291.41 870.591,319.541 870.591,375.805L870.591,472.769L818.532,472.769L818.532,376.882C818.532,364.672 816.558,355.454 812.609,349.229C808.659,343.004 801.658,339.892 791.606,339.892C781.793,339.892 774.313,343.483 769.167,350.666C764.021,357.848 761.448,366.827 761.448,377.6L761.448,472.769L710.467,472.769Z" style="fill:#fff;fill-rule:nonzero;"/><path d="M911.878,551.059L911.878,295.719L958.192,295.719L961.423,318.344C974.826,300.627 994.453,291.769 1020.3,291.769C1046.39,291.769 1067.51,300.328 1083.67,317.447C1099.83,334.565 1107.9,356.891 1107.9,384.424C1107.9,413.154 1099.77,435.958 1083.49,452.837C1067.21,469.716 1045.91,478.156 1019.58,478.156C995.889,478.156 977.34,470.614 963.936,455.531L963.936,551.059L911.878,551.059ZM1012.4,430.751C1025.57,430.751 1036.1,426.442 1044,417.823C1051.9,409.204 1055.85,398.071 1055.85,384.424C1055.85,371.256 1051.96,360.362 1044.18,351.743C1036.4,343.124 1025.81,338.815 1012.4,338.815C999.24,338.815 987.991,342.526 978.656,349.948C969.321,357.369 964.654,368.862 964.654,384.424C964.654,399.028 969.381,410.401 978.836,418.541C988.29,426.681 999.479,430.751 1012.4,430.751Z" style="fill:#fff;fill-rule:nonzero;"/><path d="M422.966,496.183L422.966,515.936C425.847,512.408 429.697,510.644 434.516,510.644C439.98,510.644 444.401,512.37 447.779,515.824C451.158,519.277 452.847,523.961 452.847,529.874C452.847,535.638 451.158,540.334 447.779,543.962C444.401,547.589 440.03,549.403 434.665,549.403C432.032,549.403 429.722,548.993 427.735,548.173C425.748,547.353 423.984,545.825 422.444,543.589L421.774,548.285L412.161,548.285L412.161,496.183L422.966,496.183ZM433.025,520.408C430.343,520.408 428.02,521.24 426.058,522.905C424.096,524.57 423.115,526.893 423.115,529.874C423.115,533.104 424.084,535.489 426.021,537.03C427.958,538.57 430.293,539.34 433.025,539.34C435.807,539.34 438.006,538.446 439.62,536.657C441.235,534.868 442.042,532.607 442.042,529.874C442.042,527.042 441.235,524.756 439.62,523.017C438.006,521.278 435.807,520.408 433.025,520.408Z" style="fill:#fff;fill-rule:nonzero;"/><path d="M497.63,511.463L475.052,564.832L463.353,564.832L470.954,547.167L455.529,511.463L467.601,511.463L476.766,534.645L485.782,511.463L497.63,511.463Z" style="fill:#fff;fill-rule:nonzero;"/><path d="M572.742,522.197C572.742,528.458 571.227,533.874 568.196,538.446L574.232,544.558L566.11,552.608L559.776,546.123C555.504,548.409 550.487,549.552 544.724,549.552C536.229,549.552 529.411,547.117 524.27,542.247C519.128,537.378 516.557,530.694 516.557,522.197C516.557,513.7 519.128,507.016 524.27,502.146C529.411,497.277 536.229,494.842 544.724,494.842C553.169,494.842 559.95,497.277 565.067,502.146C570.184,507.016 572.742,513.7 572.742,522.197ZM561.341,522.197C561.341,517.228 559.826,513.19 556.796,510.085C553.765,506.979 549.741,505.426 544.724,505.426C539.806,505.426 535.782,507.004 532.653,510.159C529.523,513.315 527.958,517.327 527.958,522.197C527.958,527.166 529.51,531.203 532.615,534.309C535.72,537.415 539.756,538.968 544.724,538.968C549.741,538.968 553.815,537.353 556.945,534.123C560.074,530.893 561.54,526.918 561.341,522.197Z" style="fill:#fff;fill-rule:nonzero;"/><path d="M590.178,511.463L590.178,531.365C590.178,537.08 592.712,539.937 597.779,539.937C600.213,539.937 602.213,539.055 603.778,537.291C605.342,535.527 606.125,533.402 606.125,530.918L606.125,511.463L616.706,511.463L616.706,548.359L607.019,548.359L606.646,543.887C603.864,547.614 600.015,549.478 595.097,549.478C592.811,549.478 590.787,549.204 589.023,548.658C587.26,548.111 585.621,547.204 584.105,545.937C582.59,544.67 581.423,542.806 580.603,540.347C579.784,537.887 579.374,534.918 579.374,531.44L579.374,511.463L590.178,511.463Z" style="fill:#fff;fill-rule:nonzero;"/><path d="M626.84,506.171C625.648,505.128 625.052,503.637 625.052,501.699C625.052,499.761 625.648,498.27 626.84,497.227C628.032,496.183 629.473,495.662 631.162,495.662C632.851,495.662 634.292,496.183 635.484,497.227C636.676,498.27 637.272,499.761 637.272,501.699C637.272,503.637 636.676,505.128 635.484,506.171C634.292,507.215 632.851,507.737 631.162,507.737C629.473,507.737 628.032,507.215 626.84,506.171ZM636.527,511.389L636.527,548.285L625.797,548.285L625.797,511.389L636.527,511.389Z" style="fill:#fff;fill-rule:nonzero;"/><path d="M669.835,548.285L669.835,528.533C669.835,526.048 669.239,524.085 668.047,522.644C666.855,521.203 665.166,520.483 662.98,520.483C660.943,520.483 659.329,521.278 658.137,522.868C656.944,524.458 656.348,526.371 656.348,528.607L656.348,548.285L645.618,548.285L645.618,511.463L655.007,511.463L655.752,515.638C657.739,512.308 660.968,510.644 665.439,510.644C670.605,510.644 674.207,512.929 676.244,517.501C677.883,515.016 679.634,513.252 681.497,512.209C683.36,511.165 685.658,510.644 688.39,510.644C698.176,510.644 703.069,516.482 703.069,528.16L703.069,548.285L692.265,548.285L692.265,528.383C692.265,525.849 691.855,523.936 691.035,522.644C690.215,521.352 688.762,520.706 686.676,520.706C684.639,520.706 683.087,521.452 682.019,522.942C680.951,524.433 680.417,526.296 680.417,528.533L680.417,548.285L669.835,548.285Z" style="fill:#fff;fill-rule:nonzero;"/><path d="M720.431,533.601C720.73,535.489 721.748,537.067 723.487,538.334C725.225,539.601 727.535,540.235 730.417,540.235C734.589,540.235 737.769,539.266 739.955,537.328L745.99,544.036C742.314,547.664 737.048,549.478 730.193,549.478C723.636,549.478 718.556,547.676 714.955,544.074C711.353,540.471 709.552,535.688 709.552,529.725C709.552,524.11 711.328,519.538 714.88,516.01C718.432,512.482 723.164,510.718 729.075,510.718C734.788,510.718 739.346,512.259 742.749,515.339C746.152,518.42 747.853,522.843 747.853,528.607C747.853,530.446 747.729,532.11 747.481,533.601L720.431,533.601ZM737.868,525.775C737.769,523.886 736.875,522.433 735.186,521.414C733.497,520.396 731.46,519.886 729.075,519.886C726.889,519.886 725.039,520.408 723.524,521.452C722.009,522.495 720.978,523.936 720.431,525.775L737.868,525.775Z" style="fill:#fff;fill-rule:nonzero;"/><path d="M776.393,511.538L789.209,511.538L789.209,511.911L777.51,529.8L789.88,548.061L789.88,548.285L777.063,548.285L770.282,537.253L763.576,548.285L750.685,548.285L750.685,548.061L763.129,529.8L751.355,511.911L751.355,511.538L764.172,511.538L770.282,522.495L776.393,511.538Z" style="fill:#fff;fill-rule:nonzero;"/><path d="M805.305,511.463L805.305,531.365C805.305,537.08 807.838,539.937 812.905,539.937C815.339,539.937 817.339,539.055 818.904,537.291C820.468,535.527 821.251,533.402 821.251,530.918L821.251,511.463L831.832,511.463L831.832,548.359L822.145,548.359L821.772,543.887C818.991,547.614 815.141,549.478 810.223,549.478C807.937,549.478 805.913,549.204 804.15,548.658C802.386,548.111 800.747,547.204 799.232,545.937C797.716,544.67 796.549,542.806 795.729,540.347C794.91,537.887 794.5,534.918 794.5,531.44L794.5,511.463L805.305,511.463Z" style="fill:#fff;fill-rule:nonzero;"/><path d="M864.097,521.973C861.514,520.234 858.608,519.364 855.379,519.364C853.69,519.364 852.386,519.638 851.467,520.184C850.548,520.731 850.088,521.452 850.088,522.346C850.088,524.433 851.902,525.501 855.528,525.551C857.664,525.601 859.539,525.787 861.154,526.11C862.768,526.433 864.433,526.98 866.146,527.75C867.86,528.52 869.189,529.725 870.133,531.365C871.077,533.005 871.549,535.017 871.549,537.402C871.549,540.682 870.22,543.539 867.562,545.974C864.905,548.409 860.868,549.627 855.453,549.627C848.946,549.627 843.183,547.54 838.166,543.365L842.786,535.912C846.561,538.893 850.933,540.384 855.901,540.384C857.441,540.384 858.707,540.098 859.701,539.527C860.694,538.955 861.166,538.247 861.117,537.402C861.117,535.415 859.03,534.322 854.857,534.123C853.019,534.073 851.243,533.825 849.529,533.377C847.816,532.93 846.176,532.272 844.611,531.402C843.047,530.533 841.792,529.315 840.848,527.75C839.905,526.185 839.433,524.383 839.433,522.346C839.433,518.52 840.973,515.6 844.053,513.588C847.133,511.575 850.883,510.569 855.304,510.569C861.017,510.569 865.712,512.159 869.388,515.339L864.097,521.973Z" style="fill:#fff;fill-rule:nonzero;"/><path d="M0.257,241.824L34.701,221.937L139.623,282.514L139.623,227.321L0.257,146.858L82.497,99.377L174.638,152.575L174.638,207.47L222.437,235.067L222.437,74.93L174.766,47.408L256.879,0L304.677,27.596L304.677,187.585L269.978,207.619L304.677,227.652L304.677,387.641L269.422,407.996L339.376,448.384L339.376,503.577L257.136,551.059L257.136,495.866L174.638,448.236L174.638,462.996L139.623,483.213L139.623,322.583L0.257,241.824ZM174.638,247.538L174.638,407.526L222.437,435.123L222.437,275.134L174.638,247.538ZM0.257,241.824L0.257,242.12L0,241.972L0.257,241.824ZM91.824,415.844L57.38,435.73L57.38,369.769L0.257,336.789L34.293,317.138L91.824,350.477L91.824,415.844Z" style="fill:#fff;"/></g></svg>