<?xml version="1.0" encoding="UTF-8" standalone="no"?><!DOCTYPE svg PUBLIC "-//W3C//DTD SVG 1.1//EN" "http://www.w3.org/Graphics/SVG/1.1/DTD/svg11.dtd"><svg width="1119px" height="565px" version="1.1" xmlns="http://www.w3.org/2000/svg" xmlns:xlink="http://www.w3.org/1999/xlink" xml:space="preserve" xmlns:serif="http://www.serif.com/" style="fill-rule:evenodd;clip-rule:evenodd;stroke-linejoin:round;stroke-miterlimit:2;"><g><path d="M418.303,563.694L418.303,537.59L412.117,537.59L412.117,528.984L418.303,528.984L418.303,527.134C418.303,522.393 419.702,518.848 422.499,516.501C425.295,514.154 428.638,512.98 432.525,512.98C435.843,512.98 439.09,513.976 442.266,515.967L438.782,523.151C437.313,522.203 435.63,521.729 433.734,521.729C432.122,521.729 430.854,522.179 429.929,523.08C429.005,523.981 428.543,525.332 428.543,527.134L428.543,528.984L438.284,528.984L438.284,537.59L428.543,537.59L428.543,563.694L418.303,563.694Z" style="fill:#fff;fill-rule:nonzero;"/><path d="M453.217,528.628L453.999,532.469C456.18,529.339 459.308,527.775 463.385,527.775C466.704,527.775 469.572,528.841 471.989,530.975L467.723,539.084C466.111,537.898 464.238,537.306 462.105,537.306C459.782,537.306 457.839,538.029 456.274,539.475C454.71,540.921 453.928,542.901 453.928,545.414L453.928,563.694L443.689,563.694L443.689,528.628L453.217,528.628Z" style="fill:#fff;fill-rule:nonzero;"/><path d="M506.263,559.747C502.802,563.137 498.109,564.832 492.184,564.832C486.258,564.832 481.577,563.137 478.14,559.747C474.703,556.356 472.985,551.84 472.985,546.197C472.985,540.838 474.75,536.428 478.282,532.967C481.814,529.505 486.448,527.775 492.184,527.775C497.967,527.775 502.624,529.505 506.156,532.967C509.688,536.428 511.454,540.838 511.454,546.197C511.454,551.84 509.723,556.356 506.263,559.747ZM485.571,552.954C487.04,554.803 489.244,555.728 492.184,555.728C495.123,555.728 497.339,554.815 498.832,552.989C500.325,551.164 501.072,548.9 501.072,546.197C501.072,543.731 500.313,541.573 498.797,539.724C497.28,537.875 495.075,536.95 492.184,536.95C489.339,536.95 487.159,537.875 485.642,539.724C484.125,541.573 483.366,543.731 483.366,546.197C483.366,548.852 484.101,551.105 485.571,552.954Z" style="fill:#fff;fill-rule:nonzero;"/><path d="M541.176,563.694L541.176,544.845C541.176,542.474 540.608,540.601 539.47,539.226C538.332,537.851 536.72,537.163 534.635,537.163C532.691,537.163 531.15,537.922 530.013,539.44C528.875,540.957 528.306,542.783 528.306,544.916L528.306,563.694L518.067,563.694L518.067,528.557L527.026,528.557L527.737,532.54C529.633,529.363 532.715,527.775 536.981,527.775C541.911,527.775 545.348,529.956 547.292,534.318C548.856,531.947 550.527,530.264 552.305,529.268C554.082,528.272 556.275,527.775 558.882,527.775C568.221,527.775 572.89,533.346 572.89,544.49L572.89,563.694L562.58,563.694L562.58,544.703C562.58,542.285 562.189,540.459 561.406,539.226C560.624,537.993 559.238,537.377 557.247,537.377C555.303,537.377 553.822,538.088 552.802,539.511C551.783,540.933 551.274,542.711 551.274,544.845L551.274,563.694L541.176,563.694Z" style="fill:#fff;fill-rule:nonzero;"/><path d="M642.433,529.126L627.074,548.473L625.083,548.473L610.221,528.984L610.221,563.765L599.129,563.765L599.129,513.976L611.857,513.976L626.363,533.109L640.94,513.976L653.526,513.976L653.526,563.765L642.433,563.765L642.433,529.126Z" style="fill:#fff;fill-rule:nonzero;"/><path d="M664.405,523.507C663.267,522.511 662.698,521.089 662.698,519.239C662.698,517.39 663.267,515.967 664.405,514.971C665.543,513.976 666.917,513.478 668.529,513.478C670.141,513.478 671.516,513.976 672.653,514.971C673.791,515.967 674.36,517.39 674.36,519.239C674.36,521.089 673.791,522.511 672.653,523.507C671.516,524.503 670.141,525.001 668.529,525.001C666.917,525.001 665.543,524.503 664.405,523.507ZM673.649,528.486L673.649,563.694L663.41,563.694L663.41,528.486L673.649,528.486Z" style="fill:#fff;fill-rule:nonzero;"/><path d="M713.184,559.213C709.629,562.959 705.055,564.832 699.461,564.832C693.962,564.832 689.387,563.256 685.737,560.102C682.087,556.949 680.262,552.361 680.262,546.339C680.262,540.649 682.111,536.132 685.808,532.789C689.506,529.446 694.033,527.775 699.39,527.775C704.794,527.775 709.037,529.434 712.118,532.754L706.429,539.226C704.581,537.851 702.376,537.163 699.816,537.163C697.162,537.163 694.957,537.981 693.203,539.617C691.449,541.253 690.572,543.494 690.572,546.339C690.572,549.042 691.449,551.188 693.203,552.776C694.957,554.365 697.091,555.159 699.603,555.159C700.836,555.159 702.127,554.922 703.478,554.448C704.829,553.973 705.908,553.333 706.714,552.527L713.184,559.213Z" style="fill:#fff;fill-rule:nonzero;"/><path d="M744.614,528.557L754.213,528.557L754.213,563.694L744.969,563.694L744.401,559.284C743.358,561.134 741.793,562.509 739.707,563.41C737.622,564.311 735.583,564.761 733.592,564.761C728.236,564.761 723.874,563.078 720.509,559.711C717.143,556.344 715.46,551.816 715.46,546.126C715.46,540.53 717.155,536.073 720.544,532.754C723.934,529.434 728.212,527.775 733.379,527.775C738.641,527.775 742.267,529.387 744.258,532.611L744.614,528.557ZM734.943,536.808C732.289,536.808 730.084,537.649 728.33,539.333C726.576,541.016 725.699,543.28 725.699,546.126C725.699,548.971 726.576,551.223 728.33,552.883C730.084,554.542 732.289,555.372 734.943,555.372C737.693,555.372 739.933,554.471 741.663,552.669C743.393,550.867 744.258,548.805 744.258,546.481C744.258,543.826 743.429,541.55 741.77,539.653C740.11,537.756 737.835,536.808 734.943,536.808Z" style="fill:#fff;fill-rule:nonzero;"/><path d="M773.199,513.905L773.199,532.754C775.711,529.482 779.267,527.846 783.865,527.846C793.204,527.846 797.873,533.465 797.873,544.703L797.873,563.694L787.634,563.694L787.634,544.774C787.634,542.356 787.029,540.483 785.82,539.155C784.612,537.827 782.988,537.163 780.95,537.163C778.722,537.163 776.861,537.91 775.368,539.404C773.874,540.898 773.128,543.02 773.128,545.77L773.128,563.694L762.888,563.694L762.888,513.905L773.199,513.905Z" style="fill:#fff;fill-rule:nonzero;"/><path d="M818.352,513.905L818.352,553.523L843.239,553.523L843.239,563.694L807.259,563.694L807.259,513.905L818.352,513.905Z" style="fill:#fff;fill-rule:nonzero;"/><path d="M860.732,523.791L845.586,523.791L845.586,513.905L886.899,513.905L886.899,523.791L871.753,523.791L871.753,563.694L860.732,563.694L860.732,523.791Z" style="fill:#fff;fill-rule:nonzero;"/><path d="M0.263,247.868L0.263,248.172L0,248.02L0.263,247.868ZM0.263,247.868L35.568,227.485L143.113,289.575L143.113,233.003L0.263,150.529L84.559,101.861L179.003,156.388L179.003,212.656L227.996,240.942L227.996,76.803L179.135,48.592L263.299,0L312.292,28.286L312.292,192.274L276.726,212.808L312.292,233.343L312.292,397.33L276.156,418.194L347.859,459.592L347.859,516.164L263.563,564.832L263.563,508.26L179.003,459.439L179.003,474.569L143.113,495.29L143.113,330.646L0.263,247.868ZM179.003,253.725L179.003,417.712L227.996,445.999L227.996,282.011L179.003,253.725ZM540.179,354.645C527.422,346.056 513.07,341.762 497.124,341.762C488.783,341.762 482.343,343.111 477.804,345.811C473.265,348.51 470.996,352.068 470.996,356.486C470.996,366.793 479.951,372.069 497.86,372.314C508.409,372.56 517.67,373.48 525.643,375.075C533.617,376.67 541.835,379.369 550.299,383.173C558.763,386.977 565.326,392.928 569.987,401.026C574.648,409.124 576.979,419.063 576.979,430.843C576.979,447.039 570.416,461.15 557.291,473.174C544.166,485.199 524.233,491.212 497.492,491.212C465.354,491.212 436.895,480.905 412.117,460.291L434.933,423.481C453.578,438.205 475.167,445.567 499.7,445.567C507.305,445.567 513.561,444.156 518.468,441.334C523.374,438.511 525.705,435.014 525.459,430.843C525.459,421.027 515.156,415.628 494.548,414.646C485.471,414.401 476.7,413.174 468.236,410.965C459.772,408.756 451.676,405.505 443.949,401.21C436.221,396.916 430.026,390.903 425.365,383.173C420.704,375.443 418.373,366.547 418.373,356.486C418.373,337.59 425.978,323.172 441.189,313.234C456.399,303.295 474.921,298.325 496.756,298.325C524.969,298.325 548.152,306.178 566.307,321.884L540.179,354.645ZM722.773,491.212L722.773,386.67C722.773,374.4 719.829,364.707 713.941,357.59C708.054,350.473 699.712,346.915 688.918,346.915C678.859,346.915 670.886,350.841 664.998,358.694C659.11,366.547 656.166,375.995 656.166,387.038L656.166,491.212L603.175,491.212L603.175,302.375L653.222,302.375L653.222,322.988C663.035,306.546 678.982,298.325 701.062,298.325C726.576,298.325 744.362,309.614 754.421,332.191C762.517,319.921 771.165,311.209 780.365,306.056C789.564,300.902 800.911,298.325 814.404,298.325C862.734,298.325 886.899,327.16 886.899,384.83L886.899,491.212L833.54,491.212L833.54,385.934C833.54,373.418 831.516,363.97 827.468,357.59C823.42,351.21 816.244,348.019 805.94,348.019C795.882,348.019 788.215,351.7 782.941,359.062C777.666,366.425 775.029,375.627 775.029,386.67L775.029,491.212L722.773,491.212ZM917.722,564.832L917.722,303.111L968.506,303.111L968.506,326.301C982.244,308.141 1002.36,299.062 1028.86,299.062C1055.6,299.062 1077.25,307.835 1093.81,325.381C1110.37,342.927 1118.65,365.811 1118.65,394.032C1118.65,423.481 1110.31,446.855 1093.62,464.156C1076.94,481.457 1055.11,490.107 1028.12,490.107C1003.83,490.107 984.82,482.377 971.082,466.917L971.082,564.832L917.722,564.832ZM1020.76,441.518C1034.25,441.518 1045.05,437.1 1053.14,428.266C1061.24,419.431 1065.29,408.02 1065.29,394.032C1065.29,380.535 1061.3,369.369 1053.33,360.535C1045.36,351.7 1034.5,347.283 1020.76,347.283C1007.27,347.283 995.737,351.087 986.17,358.694C976.602,366.302 971.818,378.081 971.818,394.032C971.818,409.002 976.663,420.658 986.354,429.002C996.044,437.346 1007.51,441.518 1020.76,441.518ZM94.12,426.238L58.815,446.621L58.815,379.011L0.263,345.207L35.15,325.065L94.12,359.237L94.12,426.238Z" style="fill:#fff;"/></g></svg>