<?xml version="1.0" encoding="UTF-8" standalone="no"?><!DOCTYPE svg PUBLIC "-//W3C//DTD SVG 1.1//EN" "http://www.w3.org/Graphics/SVG/1.1/DTD/svg11.dtd"><svg width="121px" height="31px" version="1.1" xmlns="http://www.w3.org/2000/svg" xmlns:xlink="http://www.w3.org/1999/xlink" xml:space="preserve" xmlns:serif="http://www.serif.com/" style="fill-rule:evenodd;clip-rule:evenodd;stroke-linejoin:round;stroke-miterlimit:2;"><path d="M120.28,15.294C120.28,23.736 113.427,30.589 104.985,30.589L15.294,30.589C6.853,30.589 0,23.736 0,15.294C0,6.853 6.853,-0 15.294,-0L104.985,-0C113.427,-0 120.28,6.853 120.28,15.294ZM35.303,12.019L32.396,12.019L32.396,22.713L35.52,22.713L35.52,17.138C35.52,16.372 35.759,15.768 36.236,15.327C36.713,14.886 37.306,14.665 38.015,14.665C38.665,14.665 39.237,14.846 39.728,15.208L41.03,12.735C40.292,12.084 39.417,11.759 38.405,11.759C37.161,11.759 36.207,12.236 35.542,13.19L35.303,12.019ZM50.249,11.997L50.14,13.234C49.533,12.25 48.427,11.759 46.821,11.759C45.245,11.759 43.94,12.265 42.906,13.277C41.872,14.289 41.355,15.649 41.355,17.355C41.355,19.091 41.868,20.472 42.895,21.498C43.922,22.525 45.252,23.038 46.886,23.038C47.494,23.038 48.116,22.901 48.752,22.626C49.388,22.351 49.865,21.932 50.184,21.368L50.357,22.713L53.177,22.713L53.177,11.997L50.249,11.997ZM47.299,14.514C48.181,14.514 48.875,14.803 49.381,15.381C49.887,15.96 50.14,16.654 50.14,17.464C50.14,18.172 49.876,18.801 49.348,19.351C48.821,19.9 48.137,20.175 47.299,20.175C46.489,20.175 45.816,19.922 45.281,19.416C44.746,18.91 44.479,18.223 44.479,17.355C44.479,16.488 44.746,15.797 45.281,15.284C45.816,14.77 46.489,14.514 47.299,14.514ZM23.134,11.997L20.683,11.997L18.622,18.83L17.928,16.401L16.432,11.997L12.939,11.997L16.887,22.778L20.011,22.778L21.898,17.42L23.807,22.778L26.909,22.778L30.878,11.997L27.386,11.997L25.889,16.401L25.195,18.83L23.134,11.997ZM69.706,27.442L72.851,27.442L72.851,21.672C73.661,22.583 74.782,23.038 76.213,23.038C77.804,23.038 79.091,22.529 80.074,21.509C81.058,20.49 81.549,19.112 81.549,17.377C81.549,15.714 81.061,14.365 80.085,13.331C79.109,12.297 77.833,11.78 76.257,11.78C74.695,11.78 73.509,12.316 72.699,13.386L72.504,12.019L69.706,12.019L69.706,27.442ZM75.78,20.175C74.999,20.175 74.323,19.929 73.751,19.438C73.18,18.946 72.895,18.259 72.895,17.377C72.895,16.437 73.177,15.743 73.741,15.294C74.305,14.846 74.984,14.622 75.78,14.622C76.589,14.622 77.229,14.882 77.699,15.403C78.169,15.924 78.404,16.582 78.404,17.377C78.404,18.201 78.166,18.874 77.688,19.394C77.211,19.915 76.575,20.175 75.78,20.175ZM55.823,27.442L58.969,27.442L58.969,21.672C59.778,22.583 60.899,23.038 62.331,23.038C63.921,23.038 65.209,22.529 66.192,21.509C67.175,20.49 67.667,19.112 67.667,17.377C67.667,15.714 67.179,14.365 66.203,13.331C65.227,12.297 63.95,11.78 62.374,11.78C60.812,11.78 59.627,12.316 58.817,13.386L58.622,12.019L55.823,12.019L55.823,27.442ZM61.897,20.175C61.116,20.175 60.44,19.929 59.869,19.438C59.298,18.946 59.012,18.259 59.012,17.377C59.012,16.437 59.294,15.743 59.858,15.294C60.422,14.846 61.102,14.622 61.897,14.622C62.707,14.622 63.347,14.882 63.817,15.403C64.287,15.924 64.522,16.582 64.522,17.377C64.522,18.201 64.283,18.874 63.806,19.394C63.329,19.915 62.692,20.175 61.897,20.175ZM107.341,7.551L104.195,7.551L104.195,13.299C103.357,12.287 102.236,11.78 100.833,11.78C99.243,11.78 97.955,12.283 96.972,13.288C95.989,14.293 95.497,15.649 95.497,17.355C95.497,19.018 95.989,20.378 96.972,21.433C97.955,22.489 99.228,23.017 100.79,23.017C101.542,23.017 102.203,22.901 102.775,22.67C103.346,22.438 103.87,21.997 104.347,21.346L104.542,22.713L107.341,22.713L107.341,7.551ZM101.267,14.6C102.048,14.6 102.724,14.843 103.295,15.327C103.866,15.811 104.152,16.488 104.152,17.355C104.152,18.295 103.87,18.989 103.306,19.438C102.742,19.886 102.062,20.11 101.267,20.11C100.457,20.11 99.817,19.85 99.347,19.329C98.877,18.809 98.642,18.151 98.642,17.355C98.642,16.531 98.877,15.866 99.347,15.36C99.817,14.853 100.457,14.6 101.267,14.6ZM86.148,18.44L94.022,18.44C94.094,18.006 94.131,17.521 94.131,16.986C94.131,15.309 93.635,14.022 92.645,13.125C91.654,12.229 90.327,11.78 88.664,11.78C86.943,11.78 85.566,12.294 84.532,13.321C83.498,14.347 82.981,15.678 82.981,17.312C82.981,19.047 83.505,20.439 84.554,21.487C85.602,22.536 87.081,23.06 88.99,23.06C90.985,23.06 92.518,22.532 93.588,21.477L91.831,19.524C91.195,20.088 90.269,20.37 89.055,20.37C88.216,20.37 87.544,20.186 87.037,19.817C86.531,19.448 86.235,18.989 86.148,18.44ZM91.202,16.162L86.148,16.162C86.308,15.627 86.609,15.208 87.052,14.904C87.495,14.6 88.036,14.449 88.675,14.449C89.372,14.449 89.968,14.597 90.461,14.893C90.955,15.19 91.202,15.613 91.202,16.162Z" style="fill:#fff;"/></svg>